<svg width="0" height="0" class="hidden">
  <symbol xmlns="http://www.w3.org/2000/svg" viewBox="0 0 250 250" id="0">
    <path fill="#1A232D" d="M125 120a5 5 0 110 10 5 5 0 010-10z"></path>
    <path fill="none" stroke="#1A232D" stroke-width="2" d="M125 115c5.523 0 10 4.477 10 10s-4.477 10-10 10-10-4.477-10-10 4.477-10 10-10z"></path>
  </symbol>
  <symbol xmlns="http://www.w3.org/2000/svg" viewBox="0 0 250 250" id="2">
    <path d="M125 112V76m0 49l7-12.1h-14l7 12.1z" fill="#1a232d" stroke="#1a232d" stroke-width="3" stroke-linecap="round" stroke-linejoin="round" stroke-miterlimit="10"></path>
  </symbol>
  <symbol xmlns="http://www.w3.org/2000/svg" viewBox="0 0 250 250" id="5">
    <path d="M125 112V76m0 13l7-7m-7 43l7-12.1h-14l7 12.1z" fill="#1a232d" stroke="#1a232d" stroke-width="3" stroke-linecap="round" stroke-linejoin="round" stroke-miterlimit="10"></path>
  </symbol>
  <symbol xmlns="http://www.w3.org/2000/svg" viewBox="0 0 250 250" id="10">
    <path d="M125 112V89m0 0l14-14m-14 50l7-12.1h-14l7 12.1z" fill="#1a232d" stroke="#1a232d" stroke-width="3" stroke-linecap="round" stroke-linejoin="round" stroke-miterlimit="10"></path>
  </symbol>
  <symbol xmlns="http://www.w3.org/2000/svg" viewBox="0 0 250 250" id="15">
    <path d="M125 112V89m0 0l14-14m-14 25l7-7m-7 32l7-12.1h-14l7 12.1z" fill="#1a232d" stroke="#1a232d" stroke-width="3" stroke-linecap="round" stroke-linejoin="round" stroke-miterlimit="10"></path>
  </symbol>
  <symbol xmlns="http://www.w3.org/2000/svg" viewBox="0 0 250 250" id="20">
    <path d="M125 112V89m0 0l14-14m-14 25l14-14m-14 39l7-12.1h-14l7 12.1z" fill="#1a232d" stroke="#1a232d" stroke-width="3" stroke-linecap="round" stroke-linejoin="round" stroke-miterlimit="10"></path>
  </symbol>
  <symbol xmlns="http://www.w3.org/2000/svg" viewBox="0 0 250 250" id="25">
    <path d="M125 112V79m0 0l14-14m-14 25l14-14m-14 24l7-7m-7 32l7-12.1h-14l7 12.1z" fill="#1a232d" stroke="#1a232d" stroke-width="3" stroke-linecap="round" stroke-linejoin="round" stroke-miterlimit="10"></path>
  </symbol>
  <symbol xmlns="http://www.w3.org/2000/svg" viewBox="0 0 250 250" id="30">
    <path d="M125 112V79m0 0l14-14m-14 25l14-14m-14 24l14-14m-14 39l7-12.1h-14l7 12.1z" fill="#1a232d" stroke="#1a232d" stroke-width="3" stroke-linecap="round" stroke-linejoin="round" stroke-miterlimit="10"></path>
  </symbol>
  <symbol xmlns="http://www.w3.org/2000/svg" viewBox="0 0 250 250" id="35">
    <path d="M125 112V69m0 0l14-14m-14 25l14-14m-14 24l14-14m-14 24l7-7m-7 32l7-12.1h-14l7 12.1z" fill="#1a232d" stroke="#1a232d" stroke-width="3" stroke-linecap="round" stroke-linejoin="round" stroke-miterlimit="10"></path>
  </symbol>
  <symbol xmlns="http://www.w3.org/2000/svg" viewBox="0 0 250 250" id="40">
    <path d="M125 112V69m0 0l14-14m-14 25l14-14m-14 24l14-14m-14 24l14-14m-14 39l7-12.1h-14l7 12.1z" fill="#1a232d" stroke="#1a232d" stroke-width="3" stroke-linecap="round" stroke-linejoin="round" stroke-miterlimit="10"></path>
  </symbol>
  <symbol xmlns="http://www.w3.org/2000/svg" viewBox="0 0 250 250" id="45">
    <path d="M125 112V59m0 0l14-14m-14 25l14-14m-14 24l14-14m-14 24l14-14m-14 24l7-7m-7 32l7-12.1h-14l7 12.1z" fill="#1a232d" stroke="#1a232d" stroke-width="3" stroke-linecap="round" stroke-linejoin="round" stroke-miterlimit="10"></path>
  </symbol>
  <symbol xmlns="http://www.w3.org/2000/svg" viewBox="0 0 250 250" id="50">
    <path d="M125 112V76m0 0h14l-14 14V76zm0 49l7-12.1h-14l7 12.1z" fill="#1a232d" stroke="#1a232d" stroke-width="3" stroke-linecap="round" stroke-linejoin="round" stroke-miterlimit="10"></path>
  </symbol>
  <symbol xmlns="http://www.w3.org/2000/svg" viewBox="0 0 250 250" id="55">
    <path d="M125 112V76m0 0h14l-14 14V76zm0 24l7-7m-7 32l7-12.1h-14l7 12.1z" fill="#1a232d" stroke="#1a232d" stroke-width="3" stroke-linecap="round" stroke-linejoin="round" stroke-miterlimit="10"></path>
  </symbol>
  <symbol xmlns="http://www.w3.org/2000/svg" viewBox="0 0 250 250" id="60">
    <path d="M125 112V76m0 0h14l-14 14V76zm0 24l14-14m-14 39l7-12.1h-14l7 12.1z" fill="#1a232d" stroke="#1a232d" stroke-width="3" stroke-linecap="round" stroke-linejoin="round" stroke-miterlimit="10"></path>
  </symbol>
  <symbol xmlns="http://www.w3.org/2000/svg" viewBox="0 0 250 250" id="65">
    <path d="M125 112V66m0 0h14l-14 14V66zm0 24l14-14m-14 24l7-7m-7 32l7-12.1h-14l7 12.1z" fill="#1a232d" stroke="#1a232d" stroke-width="3" stroke-linecap="round" stroke-linejoin="round" stroke-miterlimit="10"></path>
  </symbol>
  <symbol xmlns="http://www.w3.org/2000/svg" viewBox="0 0 250 250" id="70">
    <path d="M125 112V66m0 0h14l-14 14V66zm0 24l14-14m-14 24l14-14m-14 39l7-12.1h-14l7 12.1z" fill="#1a232d" stroke="#1a232d" stroke-width="3" stroke-linecap="round" stroke-linejoin="round" stroke-miterlimit="10"></path>
  </symbol>
  <symbol xmlns="http://www.w3.org/2000/svg" viewBox="0 0 250 250" id="75">
    <path d="M125 112V56m0 0h14l-14 14V56zm0 24l14-14m-14 24l14-14m-14 24l7-7m-7 32l7-12.1h-14l7 12.1z" fill="#1a232d" stroke="#1a232d" stroke-width="3" stroke-linecap="round" stroke-linejoin="round" stroke-miterlimit="10"></path>
  </symbol>
  <symbol xmlns="http://www.w3.org/2000/svg" viewBox="0 0 250 250" id="80">
    <path d="M125 112V56m0 0h14l-14 14V56zm0 24l14-14m-14 24l14-14m-14 24l14-14m-14 39l7-12.1h-14l7 12.1z" fill="#1a232d" stroke="#1a232d" stroke-width="3" stroke-linecap="round" stroke-linejoin="round" stroke-miterlimit="10"></path>
  </symbol>
  <symbol xmlns="http://www.w3.org/2000/svg" viewBox="0 0 250 250" id="85">
    <path d="M125 112V46m0 0h14l-14 14V46zm0 24l14-14m-14 24l14-14m-14 24l14-14m-14 24l7-7m-7 32l7-12.1h-14l7 12.1z" fill="#1a232d" stroke="#1a232d" stroke-width="3" stroke-linecap="round" stroke-linejoin="round" stroke-miterlimit="10"></path>
  </symbol>
  <symbol xmlns="http://www.w3.org/2000/svg" viewBox="0 0 250 250" id="90">
    <path d="M125 112V46m0 0h14l-14 14V46zm0 24l14-14m-14 24l14-14m-14 24l14-14m-14 24l14-14m-14 39l7-12.1h-14l7 12.1z" fill="#1a232d" stroke="#1a232d" stroke-width="3" stroke-linecap="round" stroke-linejoin="round" stroke-miterlimit="10"></path>
  </symbol>
  <symbol xmlns="http://www.w3.org/2000/svg" viewBox="0 0 250 250" id="95">
    <path d="M125 112V36m0 0h14l-14 14V36zm0 24l14-14m-14 24l14-14m-14 24l14-14m-14 24l14-14m-14 24l7-7m-7 32l7-12.1h-14l7 12.1z" fill="#1a232d" stroke="#1a232d" stroke-width="3" stroke-linecap="round" stroke-linejoin="round" stroke-miterlimit="10"></path>
  </symbol>
  <symbol xmlns="http://www.w3.org/2000/svg" viewBox="0 0 250 250" id="100">
    <path d="M125 112V62m0 0h14l-14 14V62zm0 14h14l-14 14V76zm0 49l7-12.1h-14l7 12.1z" fill="#1a232d" stroke="#1a232d" stroke-width="3" stroke-linecap="round" stroke-linejoin="round" stroke-miterlimit="10"></path>
  </symbol>
  <symbol xmlns="http://www.w3.org/2000/svg" viewBox="0 0 250 250" id="105">
    <path d="M125 112V62m0 0h14l-14 14V62zm0 14h14l-14 14V76zm0 24l7-7m-7 32l7-12.1h-14l7 12.1z" fill="#1a232d" stroke="#1a232d" stroke-width="3" stroke-linecap="round" stroke-linejoin="round" stroke-miterlimit="10"></path>
  </symbol>
  <symbol xmlns="http://www.w3.org/2000/svg" viewBox="0 0 250 250" id="110">
    <path d="M125 112V62m0 0h14l-14 14V62zm0 14h14l-14 14V76zm0 24l14-14m-14 39l7-12.1h-14l7 12.1z" fill="#1a232d" stroke="#1a232d" stroke-width="3" stroke-linecap="round" stroke-linejoin="round" stroke-miterlimit="10"></path>
  </symbol>
  <symbol xmlns="http://www.w3.org/2000/svg" viewBox="0 0 250 250" id="115">
    <path d="M125 112V52m0 0h14l-14 14V52zm0 14h14l-14 14V66zm0 24l14-14m-14 24l7-7m-7 32l7-12.1h-14l7 12.1z" fill="#1a232d" stroke="#1a232d" stroke-width="3" stroke-linecap="round" stroke-linejoin="round" stroke-miterlimit="10"></path>
  </symbol>
  <symbol xmlns="http://www.w3.org/2000/svg" viewBox="0 0 250 250" id="120">
    <path d="M125 112V52m0 0h14l-14 14V52zm0 14h14l-14 14V66zm0 24l14-14m-14 24l14-14m-14 39l7-12.1h-14l7 12.1z" fill="#1a232d" stroke="#1a232d" stroke-width="3" stroke-linecap="round" stroke-linejoin="round" stroke-miterlimit="10"></path>
  </symbol>
  <symbol xmlns="http://www.w3.org/2000/svg" viewBox="0 0 250 250" id="125">
    <path d="M125 112V42m0 0h14l-14 14V42zm0 14h14l-14 14V56zm0 24l14-14m-14 24l14-14m-14 24l7-7m-7 32l7-12.1h-14l7 12.1z" fill="#1a232d" stroke="#1a232d" stroke-width="3" stroke-linecap="round" stroke-linejoin="round" stroke-miterlimit="10"></path>
  </symbol>
  <symbol xmlns="http://www.w3.org/2000/svg" viewBox="0 0 250 250" id="130">
    <path d="M125 112V42m0 0h14l-14 14V42zm0 14h14l-14 14V56zm0 24l14-14m-14 24l14-14m-14 24l14-14m-14 39l7-12.1h-14l7 12.1z" fill="#1a232d" stroke="#1a232d" stroke-width="3" stroke-linecap="round" stroke-linejoin="round" stroke-miterlimit="10"></path>
  </symbol>
  <symbol xmlns="http://www.w3.org/2000/svg" viewBox="0 0 250 250" id="135">
    <path d="M125 112V32m0 0h14l-14 14V32zm0 14h14l-14 14V46zm0 24l14-14m-14 24l14-14m-14 24l14-14m-14 24l7-7m-7 32l7-12.1h-14l7 12.1z" fill="#1a232d" stroke="#1a232d" stroke-width="3" stroke-linecap="round" stroke-linejoin="round" stroke-miterlimit="10"></path>
  </symbol>
  <symbol xmlns="http://www.w3.org/2000/svg" viewBox="0 0 250 250" id="140">
    <path d="M125 112V32m0 0h14l-14 14V32zm0 14h14l-14 14V46zm0 24l14-14m-14 24l14-14m-14 24l14-14m-14 24l14-14m-14 39l7-12.1h-14l7 12.1z" fill="#1a232d" stroke="#1a232d" stroke-width="3" stroke-linecap="round" stroke-linejoin="round" stroke-miterlimit="10"></path>
  </symbol>
  <symbol xmlns="http://www.w3.org/2000/svg" viewBox="0 0 250 250" id="145">
    <path d="M125 112V22m0 0h14l-14 14V22zm0 14h14l-14 14V36zm0 24l14-14m-14 24l14-14m-14 24l14-14m-14 24l14-14m-14 24l7-7m-7 32l7-12.1h-14l7 12.1z" fill="#1a232d" stroke="#1a232d" stroke-width="3" stroke-linecap="round" stroke-linejoin="round" stroke-miterlimit="10"></path>
  </symbol>
  <symbol xmlns="http://www.w3.org/2000/svg" viewBox="0 0 250 250" id="150">
    <path d="M125 112V48m0 0h14l-14 14V48zm0 14h14l-14 14V62zm0 14h14l-14 14V76zm0 49l7-12.1h-14l7 12.1z" fill="#1a232d" stroke="#1a232d" stroke-width="3" stroke-linecap="round" stroke-linejoin="round" stroke-miterlimit="10"></path>
  </symbol>
  <symbol xmlns="http://www.w3.org/2000/svg" viewBox="0 0 250 250" id="155">
    <path d="M125 112V48m0 0h14l-14 14V48zm0 14h14l-14 14V62zm0 14h14l-14 14V76zm0 24l7-7m-7 32l7-12.1h-14l7 12.1z" fill="#1a232d" stroke="#1a232d" stroke-width="3" stroke-linecap="round" stroke-linejoin="round" stroke-miterlimit="10"></path>
  </symbol>
  <symbol xmlns="http://www.w3.org/2000/svg" viewBox="0 0 250 250" id="160">
    <path d="M125 112V48m0 0h14l-14 14V48zm0 14h14l-14 14V62zm0 14h14l-14 14V76zm0 24l14-14m-14 39l7-12.1h-14l7 12.1z" fill="#1a232d" stroke="#1a232d" stroke-width="3" stroke-linecap="round" stroke-linejoin="round" stroke-miterlimit="10"></path>
  </symbol>
  <symbol xmlns="http://www.w3.org/2000/svg" viewBox="0 0 250 250" id="165">
    <path d="M125 112V38m0 0h14l-14 14V38zm0 14h14l-14 14V52zm0 14h14l-14 14V66zm0 24l14-14m-14 24l7-7m-7 32l7-12.1h-14l7 12.1z" fill="#1a232d" stroke="#1a232d" stroke-width="3" stroke-linecap="round" stroke-linejoin="round" stroke-miterlimit="10"></path>
  </symbol>
  <symbol xmlns="http://www.w3.org/2000/svg" viewBox="0 0 250 250" id="170">
    <path d="M125 112V38m0 0h14l-14 14V38zm0 14h14l-14 14V52zm0 14h14l-14 14V66zm0 24l14-14m-14 24l14-14m-14 39l7-12.1h-14l7 12.1z" fill="#1a232d" stroke="#1a232d" stroke-width="3" stroke-linecap="round" stroke-linejoin="round" stroke-miterlimit="10"></path>
  </symbol>
  <symbol xmlns="http://www.w3.org/2000/svg" viewBox="0 0 250 250" id="175">
    <path d="M125 112V28m0 0h14l-14 14V28zm0 14h14l-14 14V42zm0 14h14l-14 14V56zm0 24l14-14m-14 24l14-14m-14 24l7-7m-7 32l7-12.1h-14l7 12.1z" fill="#1a232d" stroke="#1a232d" stroke-width="3" stroke-linecap="round" stroke-linejoin="round" stroke-miterlimit="10"></path>
  </symbol>
  <symbol xmlns="http://www.w3.org/2000/svg" viewBox="0 0 250 250" id="180">
    <path d="M125 112V28m0 0h14l-14 14V28zm0 14h14l-14 14V42zm0 14h14l-14 14V56zm0 24l14-14m-14 24l14-14m-14 24l14-14m-14 39l7-12.1h-14l7 12.1z" fill="#1a232d" stroke="#1a232d" stroke-width="3" stroke-linecap="round" stroke-linejoin="round" stroke-miterlimit="10"></path>
  </symbol>
  <symbol xmlns="http://www.w3.org/2000/svg" viewBox="0 0 250 250" id="185">
    <path d="M125 112V18m0 0h14l-14 14V18zm0 14h14l-14 14V32zm0 14h14l-14 14V46zm0 24l14-14m-14 24l14-14m-14 24l14-14m-14 24l7-7m-7 32l7-12.1h-14l7 12.1z" fill="#1a232d" stroke="#1a232d" stroke-width="3" stroke-linecap="round" stroke-linejoin="round" stroke-miterlimit="10"></path>
  </symbol>
  <symbol xmlns="http://www.w3.org/2000/svg" viewBox="0 0 250 250" id="190">
    <path d="M125 112V18m0 0h14l-14 14V18zm0 14h14l-14 14V32zm0 14h14l-14 14V46zm0 24l14-14m-14 24l14-14m-14 24l14-14m-14 24l14-14m-14 39l7-12.1h-14l7 12.1z" fill="#1a232d" stroke="#1a232d" stroke-width="3" stroke-linecap="round" stroke-linejoin="round" stroke-miterlimit="10"></path>
  </symbol>
</svg>