<svg width="560" height="587" viewBox="0 0 560 587" fill="none" xmlns="http://www.w3.org/2000/svg">
<rect width="560" height="587" rx="5" fill="white"/>
<path d="M89 131V37V131ZM89 37H103L89 51V37ZM89 51H103L89 65V51ZM89 65H103L89 79V65ZM89 89L103 75L89 89ZM89 99L103 85L89 99ZM89 109L103 95L89 109ZM89 119L103 105L89 119ZM89 144L96 131.9H82L89 144Z" fill="#1A232D" stroke="#1A232D" stroke-width="3" stroke-miterlimit="10" stroke-linecap="round" stroke-linejoin="round"/>
<path d="M137 131V37V131ZM137 37H151L137 51V37ZM137 51H151L137 65V51ZM137 65H151L137 79V65ZM137 89L151 75L137 89ZM137 99L151 85L137 99ZM137 109L151 95L137 109ZM137 119L144 112L137 119ZM137 144L144 131.9H130L137 144Z" fill="#1A232D" stroke="#1A232D" stroke-width="3" stroke-miterlimit="10" stroke-linecap="round" stroke-linejoin="round"/>
<path d="M185 131V47V131ZM185 47H199L185 61V47ZM185 61H199L185 75V61ZM185 75H199L185 89V75ZM185 99L199 85L185 99ZM185 109L199 95L185 109ZM185 119L199 105L185 119ZM185 144L192 131.9H178L185 144Z" fill="#1A232D" stroke="#1A232D" stroke-width="3" stroke-miterlimit="10" stroke-linecap="round" stroke-linejoin="round"/>
<path d="M233 131V47V131ZM233 47H247L233 61V47ZM233 61H247L233 75V61ZM233 75H247L233 89V75ZM233 99L247 85L233 99ZM233 109L247 95L233 109ZM233 119L240 112L233 119ZM233 144L240 131.9H226L233 144Z" fill="#1A232D" stroke="#1A232D" stroke-width="3" stroke-miterlimit="10" stroke-linecap="round" stroke-linejoin="round"/>
<path d="M281 131V57V131ZM281 57H295L281 71V57ZM281 71H295L281 85V71ZM281 85H295L281 99V85ZM281 109L295 95L281 109ZM281 119L295 105L281 119ZM281 144L288 131.9H274L281 144Z" fill="#1A232D" stroke="#1A232D" stroke-width="3" stroke-miterlimit="10" stroke-linecap="round" stroke-linejoin="round"/>
<path d="M329 131V57V131ZM329 57H343L329 71V57ZM329 71H343L329 85V71ZM329 85H343L329 99V85ZM329 109L343 95L329 109ZM329 119L336 112L329 119ZM329 144L336 131.9H322L329 144Z" fill="#1A232D" stroke="#1A232D" stroke-width="3" stroke-miterlimit="10" stroke-linecap="round" stroke-linejoin="round"/>
<path d="M377 131V67V131ZM377 67H391L377 81V67ZM377 81H391L377 95V81ZM377 95H391L377 109V95ZM377 119L391 105L377 119ZM377 144L384 131.9H370L377 144Z" fill="#1A232D" stroke="#1A232D" stroke-width="3" stroke-miterlimit="10" stroke-linecap="round" stroke-linejoin="round"/>
<path d="M425 131V67V131ZM425 67H439L425 81V67ZM425 81H439L425 95V81ZM425 95H439L425 109V95ZM425 119L432 112L425 119ZM425 144L432 131.9H418L425 144Z" fill="#1A232D" stroke="#1A232D" stroke-width="3" stroke-miterlimit="10" stroke-linecap="round" stroke-linejoin="round"/>
<path d="M473 131V67V131ZM473 67H487L473 81V67ZM473 81H487L473 95V81ZM473 95H487L473 109V95ZM473 144L480 131.9H466L473 144Z" fill="#1A232D" stroke="#1A232D" stroke-width="3" stroke-miterlimit="10" stroke-linecap="round" stroke-linejoin="round"/>
<path d="M41 270V180V270ZM41 180H55L41 194V180ZM41 194H55L41 208V194ZM41 218L55 204L41 218ZM41 228L55 214L41 228ZM41 238L55 224L41 238ZM41 248L55 234L41 248ZM41 258L48 251L41 258ZM41 283L48 270.9H34L41 283Z" fill="#1A232D" stroke="#1A232D" stroke-width="3" stroke-miterlimit="10" stroke-linecap="round" stroke-linejoin="round"/>
<path d="M89 270V190V270ZM89 190H103L89 204V190ZM89 204H103L89 218V204ZM89 228L103 214L89 228ZM89 238L103 224L89 238ZM89 248L103 234L89 248ZM89 258L103 244L89 258ZM89 283L96 270.9H82L89 283Z" fill="#1A232D" stroke="#1A232D" stroke-width="3" stroke-miterlimit="10" stroke-linecap="round" stroke-linejoin="round"/>
<path d="M137 270V190V270ZM137 190H151L137 204V190ZM137 204H151L137 218V204ZM137 228L151 214L137 228ZM137 238L151 224L137 238ZM137 248L151 234L137 248ZM137 258L144 251L137 258ZM137 283L144 270.9H130L137 283Z" fill="#1A232D" stroke="#1A232D" stroke-width="3" stroke-miterlimit="10" stroke-linecap="round" stroke-linejoin="round"/>
<path d="M185 270V200V270ZM185 200H199L185 214V200ZM185 214H199L185 228V214ZM185 238L199 224L185 238ZM185 248L199 234L185 248ZM185 258L199 244L185 258ZM185 283L192 270.9H178L185 283Z" fill="#1A232D" stroke="#1A232D" stroke-width="3" stroke-miterlimit="10" stroke-linecap="round" stroke-linejoin="round"/>
<path d="M233 270V200V270ZM233 200H247L233 214V200ZM233 214H247L233 228V214ZM233 238L247 224L233 238ZM233 248L247 234L233 248ZM233 258L240 251L233 258ZM233 283L240 270.9H226L233 283Z" fill="#1A232D" stroke="#1A232D" stroke-width="3" stroke-miterlimit="10" stroke-linecap="round" stroke-linejoin="round"/>
<path d="M281 270V210V270ZM281 210H295L281 224V210ZM281 224H295L281 238V224ZM281 248L295 234L281 248ZM281 258L295 244L281 258ZM281 283L288 270.9H274L281 283Z" fill="#1A232D" stroke="#1A232D" stroke-width="3" stroke-miterlimit="10" stroke-linecap="round" stroke-linejoin="round"/>
<path d="M329 270V210V270ZM329 210H343L329 224V210ZM329 224H343L329 238V224ZM329 248L343 234L329 248ZM329 258L336 251L329 258ZM329 283L336 270.9H322L329 283Z" fill="#1A232D" stroke="#1A232D" stroke-width="3" stroke-miterlimit="10" stroke-linecap="round" stroke-linejoin="round"/>
<path d="M377 270V220V270ZM377 220H391L377 234V220ZM377 234H391L377 248V234ZM377 258L391 244L377 258ZM377 283L384 270.9H370L377 283Z" fill="#1A232D" stroke="#1A232D" stroke-width="3" stroke-miterlimit="10" stroke-linecap="round" stroke-linejoin="round"/>
<path d="M425 270V220V270ZM425 220H439L425 234V220ZM425 234H439L425 248V234ZM425 258L432 251L425 258ZM425 283L432 270.9H418L425 283Z" fill="#1A232D" stroke="#1A232D" stroke-width="3" stroke-miterlimit="10" stroke-linecap="round" stroke-linejoin="round"/>
<path d="M473 270V220V270ZM473 220H487L473 234V220ZM473 234H487L473 248V234ZM473 283L480 270.9H466L473 283Z" fill="#1A232D" stroke="#1A232D" stroke-width="3" stroke-miterlimit="10" stroke-linecap="round" stroke-linejoin="round"/>
<path d="M41 397V321V397ZM41 321H55L41 335V321ZM41 345L55 331L41 345ZM41 355L55 341L41 355ZM41 365L55 351L41 365ZM41 375L55 361L41 375ZM41 385L48 378L41 385ZM41 410L48 397.9H34L41 410Z" fill="#1A232D" stroke="#1A232D" stroke-width="3" stroke-miterlimit="10" stroke-linecap="round" stroke-linejoin="round"/>
<path d="M89 397V331V397ZM89 331H103L89 345V331ZM89 355L103 341L89 355ZM89 365L103 351L89 365ZM89 375L103 361L89 375ZM89 385L103 371L89 385ZM89 410L96 397.9H82L89 410Z" fill="#1A232D" stroke="#1A232D" stroke-width="3" stroke-miterlimit="10" stroke-linecap="round" stroke-linejoin="round"/>
<path d="M137 397V331V397ZM137 331H151L137 345V331ZM137 355L151 341L137 355ZM137 365L151 351L137 365ZM137 375L151 361L137 375ZM137 385L144 378L137 385ZM137 410L144 397.9H130L137 410Z" fill="#1A232D" stroke="#1A232D" stroke-width="3" stroke-miterlimit="10" stroke-linecap="round" stroke-linejoin="round"/>
<path d="M185 397V341V397ZM185 341H199L185 355V341ZM185 365L199 351L185 365ZM185 375L199 361L185 375ZM185 385L199 371L185 385ZM185 410L192 397.9H178L185 410Z" fill="#1A232D" stroke="#1A232D" stroke-width="3" stroke-miterlimit="10" stroke-linecap="round" stroke-linejoin="round"/>
<path d="M233 397V341V397ZM233 341H247L233 355V341ZM233 365L247 351L233 365ZM233 375L247 361L233 375ZM233 385L240 378L233 385ZM233 410L240 397.9H226L233 410Z" fill="#1A232D" stroke="#1A232D" stroke-width="3" stroke-miterlimit="10" stroke-linecap="round" stroke-linejoin="round"/>
<path d="M281 397V351V397ZM281 351H295L281 365V351ZM281 375L295 361L281 375ZM281 385L295 371L281 385ZM281 410L288 397.9H274L281 410Z" fill="#1A232D" stroke="#1A232D" stroke-width="3" stroke-miterlimit="10" stroke-linecap="round" stroke-linejoin="round"/>
<path d="M329 351H343L329 365V351ZM329 410L336 397.9H322L329 410Z" fill="#1A232D"/>
<path d="M329 397V351M329 351H343L329 365V351ZM329 375L343 361M329 385L336 378M329 410L336 397.9H322L329 410Z" stroke="#1A232D" stroke-width="3" stroke-miterlimit="10" stroke-linecap="round" stroke-linejoin="round"/>
<path d="M377 397V361V397ZM377 361H391L377 375V361ZM377 385L391 371L377 385ZM377 410L384 397.9H370L377 410Z" fill="#1A232D" stroke="#1A232D" stroke-width="3" stroke-miterlimit="10" stroke-linecap="round" stroke-linejoin="round"/>
<path d="M473 397V361V397ZM473 361H487L473 375V361ZM473 410L480 397.9H466L473 410Z" fill="#1A232D" stroke="#1A232D" stroke-width="3" stroke-miterlimit="10" stroke-linecap="round" stroke-linejoin="round"/>
<path d="M41 513V460V513ZM41 460L55 446L41 460ZM41 471L55 457L41 471ZM41 481L55 467L41 481ZM41 491L55 477L41 491ZM41 501L48 494L41 501ZM41 526L48 513.9H34L41 526Z" fill="#1A232D" stroke="#1A232D" stroke-width="3" stroke-miterlimit="10" stroke-linecap="round" stroke-linejoin="round"/>
<path d="M89 513V470V513ZM89 470L103 456L89 470ZM89 481L103 467L89 481ZM89 491L103 477L89 491ZM89 501L103 487L89 501ZM89 526L96 513.9H82L89 526Z" fill="#1A232D" stroke="#1A232D" stroke-width="3" stroke-miterlimit="10" stroke-linecap="round" stroke-linejoin="round"/>
<path d="M137 513V470V513ZM137 470L151 456L137 470ZM137 481L151 467L137 481ZM137 491L151 477L137 491ZM137 501L144 494L137 501ZM137 526L144 513.9H130L137 526Z" fill="#1A232D" stroke="#1A232D" stroke-width="3" stroke-miterlimit="10" stroke-linecap="round" stroke-linejoin="round"/>
<path d="M185 513V480V513ZM185 480L199 466L185 480ZM185 491L199 477L185 491ZM185 501L199 487L185 501ZM185 526L192 513.9H178L185 526Z" fill="#1A232D" stroke="#1A232D" stroke-width="3" stroke-miterlimit="10" stroke-linecap="round" stroke-linejoin="round"/>
<path d="M233 513V480V513ZM233 480L247 466L233 480ZM233 491L247 477L233 491ZM233 501L240 494L233 501ZM233 526L240 513.9H226L233 526Z" fill="#1A232D" stroke="#1A232D" stroke-width="3" stroke-miterlimit="10" stroke-linecap="round" stroke-linejoin="round"/>
<path d="M281 513V490V513ZM281 490L295 476L281 490ZM281 501L295 487L281 501ZM281 526L288 513.9H274L281 526Z" fill="#1A232D" stroke="#1A232D" stroke-width="3" stroke-miterlimit="10" stroke-linecap="round" stroke-linejoin="round"/>
<path d="M329 513V490V513ZM329 490L343 476L329 490ZM329 501L336 494L329 501ZM329 526L336 513.9H322L329 526Z" fill="#1A232D" stroke="#1A232D" stroke-width="3" stroke-miterlimit="10" stroke-linecap="round" stroke-linejoin="round"/>
<path d="M377 513V490V513ZM377 490L391 476L377 490ZM377 526L384 513.9H370L377 526Z" fill="#1A232D" stroke="#1A232D" stroke-width="3" stroke-miterlimit="10" stroke-linecap="round" stroke-linejoin="round"/>
<path d="M425 513V477V513ZM425 490L432 483L425 490ZM425 526L432 513.9H418L425 526Z" fill="#1A232D" stroke="#1A232D" stroke-width="3" stroke-miterlimit="10" stroke-linecap="round" stroke-linejoin="round"/>
<path d="M470 513V477V513ZM470 526L477 513.9H463L470 526Z" fill="#1A232D" stroke="#1A232D" stroke-width="3" stroke-miterlimit="10" stroke-linecap="round" stroke-linejoin="round"/>
<path d="M518 511C520.762 511 523 513.239 523 516C523 518.762 520.762 521 518 521C515.239 521 513 518.762 513 516C513 513.239 515.239 511 518 511Z" fill="#1A232D"/>
<path d="M518 506C523.523 506 528 510.477 528 516C528 521.523 523.523 526 518 526C512.477 526 508 521.523 508 516C508 510.477 512.477 506 518 506Z" stroke="#1A232D" stroke-width="2"/>
<path d="M425 397V361V397ZM425 361H439L425 375V361ZM425 385L432 378L425 385ZM425 410L432 397.9H418L425 410Z" fill="#1A232D" stroke="#1A232D" stroke-width="3" stroke-miterlimit="10" stroke-linecap="round" stroke-linejoin="round"/>
<path d="M520.322 553.473C520.322 554.652 520.078 555.555 519.59 556.18C519.102 556.805 518.387 557.117 517.445 557.117C516.516 557.117 515.805 556.811 515.312 556.197C514.82 555.584 514.568 554.705 514.557 553.561V551.99C514.557 550.799 514.803 549.895 515.295 549.277C515.791 548.66 516.504 548.352 517.434 548.352C518.363 548.352 519.074 548.658 519.566 549.271C520.059 549.881 520.311 550.758 520.322 551.902V553.473ZM518.629 551.75C518.629 551.043 518.531 550.529 518.336 550.209C518.145 549.885 517.844 549.723 517.434 549.723C517.035 549.723 516.74 549.877 516.549 550.186C516.361 550.49 516.262 550.969 516.25 551.621V553.695C516.25 554.391 516.344 554.908 516.531 555.248C516.723 555.584 517.027 555.752 517.445 555.752C517.859 555.752 518.158 555.59 518.342 555.266C518.525 554.941 518.621 554.445 518.629 553.777V551.75Z" fill="black"/>
<path d="M473.428 557H467.58V555.84L470.34 552.898C470.719 552.484 470.998 552.123 471.178 551.814C471.361 551.506 471.453 551.213 471.453 550.936C471.453 550.557 471.357 550.26 471.166 550.045C470.975 549.826 470.701 549.717 470.346 549.717C469.963 549.717 469.66 549.85 469.438 550.115C469.219 550.377 469.109 550.723 469.109 551.152H467.41C467.41 550.633 467.533 550.158 467.779 549.729C468.029 549.299 468.381 548.963 468.834 548.721C469.287 548.475 469.801 548.352 470.375 548.352C471.254 548.352 471.936 548.562 472.42 548.984C472.908 549.406 473.152 550.002 473.152 550.771C473.152 551.193 473.043 551.623 472.824 552.061C472.605 552.498 472.23 553.008 471.699 553.59L469.76 555.635H473.428V557Z" fill="black"/>
<path d="M421.832 552.805L422.324 548.469H427.105V549.881H423.713L423.502 551.715C423.904 551.5 424.332 551.393 424.785 551.393C425.598 551.393 426.234 551.645 426.695 552.148C427.156 552.652 427.387 553.357 427.387 554.264C427.387 554.814 427.27 555.309 427.035 555.746C426.805 556.18 426.473 556.518 426.039 556.76C425.605 556.998 425.094 557.117 424.504 557.117C423.988 557.117 423.51 557.014 423.068 556.807C422.627 556.596 422.277 556.301 422.02 555.922C421.766 555.543 421.631 555.111 421.615 554.627H423.291C423.326 554.982 423.449 555.26 423.66 555.459C423.875 555.654 424.154 555.752 424.498 555.752C424.881 555.752 425.176 555.615 425.383 555.342C425.59 555.064 425.693 554.674 425.693 554.17C425.693 553.686 425.574 553.314 425.336 553.057C425.098 552.799 424.76 552.67 424.322 552.67C423.92 552.67 423.594 552.775 423.344 552.986L423.18 553.139L421.832 552.805Z" fill="black"/>
<path d="M374.693 557H373V550.473L370.979 551.1V549.723L374.512 548.457H374.693V557ZM383.213 553.473C383.213 554.652 382.969 555.555 382.48 556.18C381.992 556.805 381.277 557.117 380.336 557.117C379.406 557.117 378.695 556.811 378.203 556.197C377.711 555.584 377.459 554.705 377.447 553.561V551.99C377.447 550.799 377.693 549.895 378.186 549.277C378.682 548.66 379.395 548.352 380.324 548.352C381.254 548.352 381.965 548.658 382.457 549.271C382.949 549.881 383.201 550.758 383.213 551.902V553.473ZM381.52 551.75C381.52 551.043 381.422 550.529 381.227 550.209C381.035 549.885 380.734 549.723 380.324 549.723C379.926 549.723 379.631 549.877 379.439 550.186C379.252 550.49 379.152 550.969 379.141 551.621V553.695C379.141 554.391 379.234 554.908 379.422 555.248C379.613 555.584 379.918 555.752 380.336 555.752C380.75 555.752 381.049 555.59 381.232 555.266C381.416 554.941 381.512 554.445 381.52 553.777V551.75Z" fill="black"/>
<path d="M326.693 557H325V550.473L322.979 551.1V549.723L326.512 548.457H326.693V557ZM329.723 552.805L330.215 548.469H334.996V549.881H331.604L331.393 551.715C331.795 551.5 332.223 551.393 332.676 551.393C333.488 551.393 334.125 551.645 334.586 552.148C335.047 552.652 335.277 553.357 335.277 554.264C335.277 554.814 335.16 555.309 334.926 555.746C334.695 556.18 334.363 556.518 333.93 556.76C333.496 556.998 332.984 557.117 332.395 557.117C331.879 557.117 331.4 557.014 330.959 556.807C330.518 556.596 330.168 556.301 329.91 555.922C329.656 555.543 329.521 555.111 329.506 554.627H331.182C331.217 554.982 331.34 555.26 331.551 555.459C331.766 555.654 332.045 555.752 332.389 555.752C332.771 555.752 333.066 555.615 333.273 555.342C333.48 555.064 333.584 554.674 333.584 554.17C333.584 553.686 333.465 553.314 333.227 553.057C332.988 552.799 332.65 552.67 332.213 552.67C331.811 552.67 331.484 552.775 331.234 552.986L331.07 553.139L329.723 552.805Z" fill="black"/>
<path d="M280.428 557H274.58V555.84L277.34 552.898C277.719 552.484 277.998 552.123 278.178 551.814C278.361 551.506 278.453 551.213 278.453 550.936C278.453 550.557 278.357 550.26 278.166 550.045C277.975 549.826 277.701 549.717 277.346 549.717C276.963 549.717 276.66 549.85 276.438 550.115C276.219 550.377 276.109 550.723 276.109 551.152H274.41C274.41 550.633 274.533 550.158 274.779 549.729C275.029 549.299 275.381 548.963 275.834 548.721C276.287 548.475 276.801 548.352 277.375 548.352C278.254 548.352 278.936 548.562 279.42 548.984C279.908 549.406 280.152 550.002 280.152 550.771C280.152 551.193 280.043 551.623 279.824 552.061C279.605 552.498 279.23 553.008 278.699 553.59L276.76 555.635H280.428V557ZM287.213 553.473C287.213 554.652 286.969 555.555 286.48 556.18C285.992 556.805 285.277 557.117 284.336 557.117C283.406 557.117 282.695 556.811 282.203 556.197C281.711 555.584 281.459 554.705 281.447 553.561V551.99C281.447 550.799 281.693 549.895 282.186 549.277C282.682 548.66 283.395 548.352 284.324 548.352C285.254 548.352 285.965 548.658 286.457 549.271C286.949 549.881 287.201 550.758 287.213 551.902V553.473ZM285.52 551.75C285.52 551.043 285.422 550.529 285.227 550.209C285.035 549.885 284.734 549.723 284.324 549.723C283.926 549.723 283.631 549.877 283.439 550.186C283.252 550.49 283.152 550.969 283.141 551.621V553.695C283.141 554.391 283.234 554.908 283.422 555.248C283.613 555.584 283.918 555.752 284.336 555.752C284.75 555.752 285.049 555.59 285.232 555.266C285.416 554.941 285.512 554.445 285.52 553.777V551.75Z" fill="black"/>
<path d="M232.428 557H226.58V555.84L229.34 552.898C229.719 552.484 229.998 552.123 230.178 551.814C230.361 551.506 230.453 551.213 230.453 550.936C230.453 550.557 230.357 550.26 230.166 550.045C229.975 549.826 229.701 549.717 229.346 549.717C228.963 549.717 228.66 549.85 228.438 550.115C228.219 550.377 228.109 550.723 228.109 551.152H226.41C226.41 550.633 226.533 550.158 226.779 549.729C227.029 549.299 227.381 548.963 227.834 548.721C228.287 548.475 228.801 548.352 229.375 548.352C230.254 548.352 230.936 548.562 231.42 548.984C231.908 549.406 232.152 550.002 232.152 550.771C232.152 551.193 232.043 551.623 231.824 552.061C231.605 552.498 231.23 553.008 230.699 553.59L228.76 555.635H232.428V557ZM233.723 552.805L234.215 548.469H238.996V549.881H235.604L235.393 551.715C235.795 551.5 236.223 551.393 236.676 551.393C237.488 551.393 238.125 551.645 238.586 552.148C239.047 552.652 239.277 553.357 239.277 554.264C239.277 554.814 239.16 555.309 238.926 555.746C238.695 556.18 238.363 556.518 237.93 556.76C237.496 556.998 236.984 557.117 236.395 557.117C235.879 557.117 235.4 557.014 234.959 556.807C234.518 556.596 234.168 556.301 233.91 555.922C233.656 555.543 233.521 555.111 233.506 554.627H235.182C235.217 554.982 235.34 555.26 235.551 555.459C235.766 555.654 236.045 555.752 236.389 555.752C236.771 555.752 237.066 555.615 237.273 555.342C237.48 555.064 237.584 554.674 237.584 554.17C237.584 553.686 237.465 553.314 237.227 553.057C236.988 552.799 236.65 552.67 236.213 552.67C235.811 552.67 235.484 552.775 235.234 552.986L235.07 553.139L233.723 552.805Z" fill="black"/>
<path d="M180.303 551.984H181.205C181.635 551.984 181.953 551.877 182.16 551.662C182.367 551.447 182.471 551.162 182.471 550.807C182.471 550.463 182.367 550.195 182.16 550.004C181.957 549.812 181.676 549.717 181.316 549.717C180.992 549.717 180.721 549.807 180.502 549.986C180.283 550.162 180.174 550.393 180.174 550.678H178.48C178.48 550.232 178.6 549.834 178.838 549.482C179.08 549.127 179.416 548.85 179.846 548.65C180.279 548.451 180.756 548.352 181.275 548.352C182.178 548.352 182.885 548.568 183.396 549.002C183.908 549.432 184.164 550.025 184.164 550.783C184.164 551.174 184.045 551.533 183.807 551.861C183.568 552.189 183.256 552.441 182.869 552.617C183.35 552.789 183.707 553.047 183.941 553.391C184.18 553.734 184.299 554.141 184.299 554.609C184.299 555.367 184.021 555.975 183.467 556.432C182.916 556.889 182.186 557.117 181.275 557.117C180.424 557.117 179.727 556.893 179.184 556.443C178.645 555.994 178.375 555.4 178.375 554.662H180.068C180.068 554.982 180.188 555.244 180.426 555.447C180.668 555.65 180.965 555.752 181.316 555.752C181.719 555.752 182.033 555.646 182.26 555.436C182.49 555.221 182.605 554.938 182.605 554.586C182.605 553.734 182.137 553.309 181.199 553.309H180.303V551.984ZM191.213 553.473C191.213 554.652 190.969 555.555 190.48 556.18C189.992 556.805 189.277 557.117 188.336 557.117C187.406 557.117 186.695 556.811 186.203 556.197C185.711 555.584 185.459 554.705 185.447 553.561V551.99C185.447 550.799 185.693 549.895 186.186 549.277C186.682 548.66 187.395 548.352 188.324 548.352C189.254 548.352 189.965 548.658 190.457 549.271C190.949 549.881 191.201 550.758 191.213 551.902V553.473ZM189.52 551.75C189.52 551.043 189.422 550.529 189.227 550.209C189.035 549.885 188.734 549.723 188.324 549.723C187.926 549.723 187.631 549.877 187.439 550.186C187.252 550.49 187.152 550.969 187.141 551.621V553.695C187.141 554.391 187.234 554.908 187.422 555.248C187.613 555.584 187.918 555.752 188.336 555.752C188.75 555.752 189.049 555.59 189.232 555.266C189.416 554.941 189.512 554.445 189.52 553.777V551.75Z" fill="black"/>
<path d="M132.303 551.984H133.205C133.635 551.984 133.953 551.877 134.16 551.662C134.367 551.447 134.471 551.162 134.471 550.807C134.471 550.463 134.367 550.195 134.16 550.004C133.957 549.812 133.676 549.717 133.316 549.717C132.992 549.717 132.721 549.807 132.502 549.986C132.283 550.162 132.174 550.393 132.174 550.678H130.48C130.48 550.232 130.6 549.834 130.838 549.482C131.08 549.127 131.416 548.85 131.846 548.65C132.279 548.451 132.756 548.352 133.275 548.352C134.178 548.352 134.885 548.568 135.396 549.002C135.908 549.432 136.164 550.025 136.164 550.783C136.164 551.174 136.045 551.533 135.807 551.861C135.568 552.189 135.256 552.441 134.869 552.617C135.35 552.789 135.707 553.047 135.941 553.391C136.18 553.734 136.299 554.141 136.299 554.609C136.299 555.367 136.021 555.975 135.467 556.432C134.916 556.889 134.186 557.117 133.275 557.117C132.424 557.117 131.727 556.893 131.184 556.443C130.645 555.994 130.375 555.4 130.375 554.662H132.068C132.068 554.982 132.188 555.244 132.426 555.447C132.668 555.65 132.965 555.752 133.316 555.752C133.719 555.752 134.033 555.646 134.26 555.436C134.49 555.221 134.605 554.938 134.605 554.586C134.605 553.734 134.137 553.309 133.199 553.309H132.303V551.984ZM137.723 552.805L138.215 548.469H142.996V549.881H139.604L139.393 551.715C139.795 551.5 140.223 551.393 140.676 551.393C141.488 551.393 142.125 551.645 142.586 552.148C143.047 552.652 143.277 553.357 143.277 554.264C143.277 554.814 143.16 555.309 142.926 555.746C142.695 556.18 142.363 556.518 141.93 556.76C141.496 556.998 140.984 557.117 140.395 557.117C139.879 557.117 139.4 557.014 138.959 556.807C138.518 556.596 138.168 556.301 137.91 555.922C137.656 555.543 137.521 555.111 137.506 554.627H139.182C139.217 554.982 139.34 555.26 139.551 555.459C139.766 555.654 140.045 555.752 140.389 555.752C140.771 555.752 141.066 555.615 141.273 555.342C141.48 555.064 141.584 554.674 141.584 554.17C141.584 553.686 141.465 553.314 141.227 553.057C140.988 552.799 140.65 552.67 140.213 552.67C139.811 552.67 139.484 552.775 139.234 552.986L139.07 553.139L137.723 552.805Z" fill="black"/>
<path d="M87.5898 553.789H88.5566V555.154H87.5898V557H85.8965V555.154H82.3984L82.3223 554.088L85.8789 548.469H87.5898V553.789ZM84.0098 553.789H85.8965V550.777L85.7852 550.971L84.0098 553.789ZM95.2129 553.473C95.2129 554.652 94.9688 555.555 94.4805 556.18C93.9922 556.805 93.2773 557.117 92.3359 557.117C91.4062 557.117 90.6953 556.811 90.2031 556.197C89.7109 555.584 89.459 554.705 89.4473 553.561V551.99C89.4473 550.799 89.6934 549.895 90.1855 549.277C90.6816 548.66 91.3945 548.352 92.3242 548.352C93.2539 548.352 93.9648 548.658 94.457 549.271C94.9492 549.881 95.2012 550.758 95.2129 551.902V553.473ZM93.5195 551.75C93.5195 551.043 93.4219 550.529 93.2266 550.209C93.0352 549.885 92.7344 549.723 92.3242 549.723C91.9258 549.723 91.6309 549.877 91.4395 550.186C91.252 550.49 91.1523 550.969 91.1406 551.621V553.695C91.1406 554.391 91.2344 554.908 91.4219 555.248C91.6133 555.584 91.918 555.752 92.3359 555.752C92.75 555.752 93.0488 555.59 93.2324 555.266C93.416 554.941 93.5117 554.445 93.5195 553.777V551.75Z" fill="black"/>
<path d="M39.5898 553.789H40.5566V555.154H39.5898V557H37.8965V555.154H34.3984L34.3223 554.088L37.8789 548.469H39.5898V553.789ZM36.0098 553.789H37.8965V550.777L37.7852 550.971L36.0098 553.789ZM41.7227 552.805L42.2148 548.469H46.9961V549.881H43.6035L43.3926 551.715C43.7949 551.5 44.2227 551.393 44.6758 551.393C45.4883 551.393 46.125 551.645 46.5859 552.148C47.0469 552.652 47.2773 553.357 47.2773 554.264C47.2773 554.814 47.1602 555.309 46.9258 555.746C46.6953 556.18 46.3633 556.518 45.9297 556.76C45.4961 556.998 44.9844 557.117 44.3945 557.117C43.8789 557.117 43.4004 557.014 42.959 556.807C42.5176 556.596 42.168 556.301 41.9102 555.922C41.6562 555.543 41.5215 555.111 41.5059 554.627H43.1816C43.2168 554.982 43.3398 555.26 43.5508 555.459C43.7656 555.654 44.0449 555.752 44.3887 555.752C44.7715 555.752 45.0664 555.615 45.2734 555.342C45.4805 555.064 45.584 554.674 45.584 554.17C45.584 553.686 45.4648 553.314 45.2266 553.057C44.9883 552.799 44.6504 552.67 44.2129 552.67C43.8105 552.67 43.4844 552.775 43.2344 552.986L43.0703 553.139L41.7227 552.805Z" fill="black"/>
<path d="M467.693 165H466V158.473L463.979 159.1V157.723L467.512 156.457H467.693V165ZM470.723 160.805L471.215 156.469H475.996V157.881H472.604L472.393 159.715C472.795 159.5 473.223 159.393 473.676 159.393C474.488 159.393 475.125 159.645 475.586 160.148C476.047 160.652 476.277 161.357 476.277 162.264C476.277 162.814 476.16 163.309 475.926 163.746C475.695 164.18 475.363 164.518 474.93 164.76C474.496 164.998 473.984 165.117 473.395 165.117C472.879 165.117 472.4 165.014 471.959 164.807C471.518 164.596 471.168 164.301 470.91 163.922C470.656 163.543 470.521 163.111 470.506 162.627H472.182C472.217 162.982 472.34 163.26 472.551 163.459C472.766 163.654 473.045 163.752 473.389 163.752C473.771 163.752 474.066 163.615 474.273 163.342C474.48 163.064 474.584 162.674 474.584 162.17C474.584 161.686 474.465 161.314 474.227 161.057C473.988 160.799 473.65 160.67 473.213 160.67C472.811 160.67 472.484 160.775 472.234 160.986L472.07 161.139L470.723 160.805ZM483.104 161.473C483.104 162.652 482.859 163.555 482.371 164.18C481.883 164.805 481.168 165.117 480.227 165.117C479.297 165.117 478.586 164.811 478.094 164.197C477.602 163.584 477.35 162.705 477.338 161.561V159.99C477.338 158.799 477.584 157.895 478.076 157.277C478.572 156.66 479.285 156.352 480.215 156.352C481.145 156.352 481.855 156.658 482.348 157.271C482.84 157.881 483.092 158.758 483.104 159.902V161.473ZM481.41 159.75C481.41 159.043 481.312 158.529 481.117 158.209C480.926 157.885 480.625 157.723 480.215 157.723C479.816 157.723 479.521 157.877 479.33 158.186C479.143 158.49 479.043 158.969 479.031 159.621V161.695C479.031 162.391 479.125 162.908 479.312 163.248C479.504 163.584 479.809 163.752 480.227 163.752C480.641 163.752 480.939 163.59 481.123 163.266C481.307 162.941 481.402 162.445 481.41 161.777V159.75Z" fill="black"/>
<path d="M418.693 165H417V158.473L414.979 159.1V157.723L418.512 156.457H418.693V165ZM421.723 160.805L422.215 156.469H426.996V157.881H423.604L423.393 159.715C423.795 159.5 424.223 159.393 424.676 159.393C425.488 159.393 426.125 159.645 426.586 160.148C427.047 160.652 427.277 161.357 427.277 162.264C427.277 162.814 427.16 163.309 426.926 163.746C426.695 164.18 426.363 164.518 425.93 164.76C425.496 164.998 424.984 165.117 424.395 165.117C423.879 165.117 423.4 165.014 422.959 164.807C422.518 164.596 422.168 164.301 421.91 163.922C421.656 163.543 421.521 163.111 421.506 162.627H423.182C423.217 162.982 423.34 163.26 423.551 163.459C423.766 163.654 424.045 163.752 424.389 163.752C424.771 163.752 425.066 163.615 425.273 163.342C425.48 163.064 425.584 162.674 425.584 162.17C425.584 161.686 425.465 161.314 425.227 161.057C424.988 160.799 424.65 160.67 424.213 160.67C423.811 160.67 423.484 160.775 423.234 160.986L423.07 161.139L421.723 160.805ZM428.613 160.805L429.105 156.469H433.887V157.881H430.494L430.283 159.715C430.686 159.5 431.113 159.393 431.566 159.393C432.379 159.393 433.016 159.645 433.477 160.148C433.938 160.652 434.168 161.357 434.168 162.264C434.168 162.814 434.051 163.309 433.816 163.746C433.586 164.18 433.254 164.518 432.82 164.76C432.387 164.998 431.875 165.117 431.285 165.117C430.77 165.117 430.291 165.014 429.85 164.807C429.408 164.596 429.059 164.301 428.801 163.922C428.547 163.543 428.412 163.111 428.396 162.627H430.072C430.107 162.982 430.23 163.26 430.441 163.459C430.656 163.654 430.936 163.752 431.279 163.752C431.662 163.752 431.957 163.615 432.164 163.342C432.371 163.064 432.475 162.674 432.475 162.17C432.475 161.686 432.355 161.314 432.117 161.057C431.879 160.799 431.541 160.67 431.104 160.67C430.701 160.67 430.375 160.775 430.125 160.986L429.961 161.139L428.613 160.805Z" fill="black"/>
<path d="M370.693 165H369V158.473L366.979 159.1V157.723L370.512 156.457H370.693V165ZM378.064 156.381V157.775H377.9C377.135 157.787 376.518 157.986 376.049 158.373C375.584 158.76 375.305 159.297 375.211 159.984C375.664 159.523 376.236 159.293 376.928 159.293C377.67 159.293 378.26 159.559 378.697 160.09C379.135 160.621 379.354 161.32 379.354 162.188C379.354 162.742 379.232 163.244 378.99 163.693C378.752 164.143 378.412 164.492 377.971 164.742C377.533 164.992 377.037 165.117 376.482 165.117C375.584 165.117 374.857 164.805 374.303 164.18C373.752 163.555 373.477 162.721 373.477 161.678V161.068C373.477 160.143 373.65 159.326 373.998 158.619C374.35 157.908 374.852 157.359 375.504 156.973C376.16 156.582 376.92 156.385 377.783 156.381H378.064ZM376.412 160.652C376.139 160.652 375.891 160.725 375.668 160.869C375.445 161.01 375.281 161.197 375.176 161.432V161.947C375.176 162.514 375.287 162.957 375.51 163.277C375.732 163.594 376.045 163.752 376.447 163.752C376.811 163.752 377.104 163.609 377.326 163.324C377.553 163.035 377.666 162.662 377.666 162.205C377.666 161.74 377.553 161.365 377.326 161.08C377.1 160.795 376.795 160.652 376.412 160.652ZM386.104 161.473C386.104 162.652 385.859 163.555 385.371 164.18C384.883 164.805 384.168 165.117 383.227 165.117C382.297 165.117 381.586 164.811 381.094 164.197C380.602 163.584 380.35 162.705 380.338 161.561V159.99C380.338 158.799 380.584 157.895 381.076 157.277C381.572 156.66 382.285 156.352 383.215 156.352C384.145 156.352 384.855 156.658 385.348 157.271C385.84 157.881 386.092 158.758 386.104 159.902V161.473ZM384.41 159.75C384.41 159.043 384.312 158.529 384.117 158.209C383.926 157.885 383.625 157.723 383.215 157.723C382.816 157.723 382.521 157.877 382.33 158.186C382.143 158.49 382.043 158.969 382.031 159.621V161.695C382.031 162.391 382.125 162.908 382.312 163.248C382.504 163.584 382.809 163.752 383.227 163.752C383.641 163.752 383.939 163.59 384.123 163.266C384.307 162.941 384.402 162.445 384.41 161.777V159.75Z" fill="black"/>
<path d="M322.693 165H321V158.473L318.979 159.1V157.723L322.512 156.457H322.693V165ZM330.064 156.381V157.775H329.9C329.135 157.787 328.518 157.986 328.049 158.373C327.584 158.76 327.305 159.297 327.211 159.984C327.664 159.523 328.236 159.293 328.928 159.293C329.67 159.293 330.26 159.559 330.697 160.09C331.135 160.621 331.354 161.32 331.354 162.188C331.354 162.742 331.232 163.244 330.99 163.693C330.752 164.143 330.412 164.492 329.971 164.742C329.533 164.992 329.037 165.117 328.482 165.117C327.584 165.117 326.857 164.805 326.303 164.18C325.752 163.555 325.477 162.721 325.477 161.678V161.068C325.477 160.143 325.65 159.326 325.998 158.619C326.35 157.908 326.852 157.359 327.504 156.973C328.16 156.582 328.92 156.385 329.783 156.381H330.064ZM328.412 160.652C328.139 160.652 327.891 160.725 327.668 160.869C327.445 161.01 327.281 161.197 327.176 161.432V161.947C327.176 162.514 327.287 162.957 327.51 163.277C327.732 163.594 328.045 163.752 328.447 163.752C328.811 163.752 329.104 163.609 329.326 163.324C329.553 163.035 329.666 162.662 329.666 162.205C329.666 161.74 329.553 161.365 329.326 161.08C329.1 160.795 328.795 160.652 328.412 160.652ZM332.613 160.805L333.105 156.469H337.887V157.881H334.494L334.283 159.715C334.686 159.5 335.113 159.393 335.566 159.393C336.379 159.393 337.016 159.645 337.477 160.148C337.938 160.652 338.168 161.357 338.168 162.264C338.168 162.814 338.051 163.309 337.816 163.746C337.586 164.18 337.254 164.518 336.82 164.76C336.387 164.998 335.875 165.117 335.285 165.117C334.77 165.117 334.291 165.014 333.85 164.807C333.408 164.596 333.059 164.301 332.801 163.922C332.547 163.543 332.412 163.111 332.396 162.627H334.072C334.107 162.982 334.23 163.26 334.441 163.459C334.656 163.654 334.936 163.752 335.279 163.752C335.662 163.752 335.957 163.615 336.164 163.342C336.371 163.064 336.475 162.674 336.475 162.17C336.475 161.686 336.355 161.314 336.117 161.057C335.879 160.799 335.541 160.67 335.104 160.67C334.701 160.67 334.375 160.775 334.125 160.986L333.961 161.139L332.613 160.805Z" fill="black"/>
<path d="M274.693 165H273V158.473L270.979 159.1V157.723L274.512 156.457H274.693V165ZM283.271 157.418L279.973 165H278.186L281.49 157.84H277.248V156.469H283.271V157.418ZM290.104 161.473C290.104 162.652 289.859 163.555 289.371 164.18C288.883 164.805 288.168 165.117 287.227 165.117C286.297 165.117 285.586 164.811 285.094 164.197C284.602 163.584 284.35 162.705 284.338 161.561V159.99C284.338 158.799 284.584 157.895 285.076 157.277C285.572 156.66 286.285 156.352 287.215 156.352C288.145 156.352 288.855 156.658 289.348 157.271C289.84 157.881 290.092 158.758 290.104 159.902V161.473ZM288.41 159.75C288.41 159.043 288.312 158.529 288.117 158.209C287.926 157.885 287.625 157.723 287.215 157.723C286.816 157.723 286.521 157.877 286.33 158.186C286.143 158.49 286.043 158.969 286.031 159.621V161.695C286.031 162.391 286.125 162.908 286.312 163.248C286.504 163.584 286.809 163.752 287.227 163.752C287.641 163.752 287.939 163.59 288.123 163.266C288.307 162.941 288.402 162.445 288.41 161.777V159.75Z" fill="black"/>
<path d="M226.693 165H225V158.473L222.979 159.1V157.723L226.512 156.457H226.693V165ZM235.271 157.418L231.973 165H230.186L233.49 157.84H229.248V156.469H235.271V157.418ZM236.613 160.805L237.105 156.469H241.887V157.881H238.494L238.283 159.715C238.686 159.5 239.113 159.393 239.566 159.393C240.379 159.393 241.016 159.645 241.477 160.148C241.938 160.652 242.168 161.357 242.168 162.264C242.168 162.814 242.051 163.309 241.816 163.746C241.586 164.18 241.254 164.518 240.82 164.76C240.387 164.998 239.875 165.117 239.285 165.117C238.77 165.117 238.291 165.014 237.85 164.807C237.408 164.596 237.059 164.301 236.801 163.922C236.547 163.543 236.412 163.111 236.396 162.627H238.072C238.107 162.982 238.23 163.26 238.441 163.459C238.656 163.654 238.936 163.752 239.279 163.752C239.662 163.752 239.957 163.615 240.164 163.342C240.371 163.064 240.475 162.674 240.475 162.17C240.475 161.686 240.355 161.314 240.117 161.057C239.879 160.799 239.541 160.67 239.104 160.67C238.701 160.67 238.375 160.775 238.125 160.986L237.961 161.139L236.613 160.805Z" fill="black"/>
<path d="M179.693 165H178V158.473L175.979 159.1V157.723L179.512 156.457H179.693V165ZM188.031 158.736C188.031 159.15 187.928 159.518 187.721 159.838C187.514 160.158 187.229 160.414 186.865 160.605C187.279 160.805 187.607 161.08 187.85 161.432C188.092 161.779 188.213 162.189 188.213 162.662C188.213 163.42 187.955 164.02 187.439 164.461C186.924 164.898 186.223 165.117 185.336 165.117C184.449 165.117 183.746 164.896 183.227 164.455C182.707 164.014 182.447 163.416 182.447 162.662C182.447 162.189 182.568 161.777 182.811 161.426C183.053 161.074 183.379 160.801 183.789 160.605C183.426 160.414 183.141 160.158 182.934 159.838C182.73 159.518 182.629 159.15 182.629 158.736C182.629 158.01 182.871 157.432 183.355 157.002C183.84 156.568 184.498 156.352 185.33 156.352C186.158 156.352 186.814 156.566 187.299 156.996C187.787 157.422 188.031 158.002 188.031 158.736ZM186.514 162.539C186.514 162.168 186.406 161.871 186.191 161.648C185.977 161.426 185.688 161.314 185.324 161.314C184.965 161.314 184.678 161.426 184.463 161.648C184.248 161.867 184.141 162.164 184.141 162.539C184.141 162.902 184.246 163.195 184.457 163.418C184.668 163.641 184.961 163.752 185.336 163.752C185.703 163.752 185.99 163.645 186.197 163.43C186.408 163.215 186.514 162.918 186.514 162.539ZM186.338 158.818C186.338 158.486 186.25 158.221 186.074 158.021C185.898 157.818 185.65 157.717 185.33 157.717C185.014 157.717 184.768 157.814 184.592 158.01C184.416 158.205 184.328 158.475 184.328 158.818C184.328 159.158 184.416 159.432 184.592 159.639C184.768 159.846 185.016 159.949 185.336 159.949C185.656 159.949 185.902 159.846 186.074 159.639C186.25 159.432 186.338 159.158 186.338 158.818ZM195.104 161.473C195.104 162.652 194.859 163.555 194.371 164.18C193.883 164.805 193.168 165.117 192.227 165.117C191.297 165.117 190.586 164.811 190.094 164.197C189.602 163.584 189.35 162.705 189.338 161.561V159.99C189.338 158.799 189.584 157.895 190.076 157.277C190.572 156.66 191.285 156.352 192.215 156.352C193.145 156.352 193.855 156.658 194.348 157.271C194.84 157.881 195.092 158.758 195.104 159.902V161.473ZM193.41 159.75C193.41 159.043 193.312 158.529 193.117 158.209C192.926 157.885 192.625 157.723 192.215 157.723C191.816 157.723 191.521 157.877 191.33 158.186C191.143 158.49 191.043 158.969 191.031 159.621V161.695C191.031 162.391 191.125 162.908 191.312 163.248C191.504 163.584 191.809 163.752 192.227 163.752C192.641 163.752 192.939 163.59 193.123 163.266C193.307 162.941 193.402 162.445 193.41 161.777V159.75Z" fill="black"/>
<path d="M131.693 165H130V158.473L127.979 159.1V157.723L131.512 156.457H131.693V165ZM140.031 158.736C140.031 159.15 139.928 159.518 139.721 159.838C139.514 160.158 139.229 160.414 138.865 160.605C139.279 160.805 139.607 161.08 139.85 161.432C140.092 161.779 140.213 162.189 140.213 162.662C140.213 163.42 139.955 164.02 139.439 164.461C138.924 164.898 138.223 165.117 137.336 165.117C136.449 165.117 135.746 164.896 135.227 164.455C134.707 164.014 134.447 163.416 134.447 162.662C134.447 162.189 134.568 161.777 134.811 161.426C135.053 161.074 135.379 160.801 135.789 160.605C135.426 160.414 135.141 160.158 134.934 159.838C134.73 159.518 134.629 159.15 134.629 158.736C134.629 158.01 134.871 157.432 135.355 157.002C135.84 156.568 136.498 156.352 137.33 156.352C138.158 156.352 138.814 156.566 139.299 156.996C139.787 157.422 140.031 158.002 140.031 158.736ZM138.514 162.539C138.514 162.168 138.406 161.871 138.191 161.648C137.977 161.426 137.688 161.314 137.324 161.314C136.965 161.314 136.678 161.426 136.463 161.648C136.248 161.867 136.141 162.164 136.141 162.539C136.141 162.902 136.246 163.195 136.457 163.418C136.668 163.641 136.961 163.752 137.336 163.752C137.703 163.752 137.99 163.645 138.197 163.43C138.408 163.215 138.514 162.918 138.514 162.539ZM138.338 158.818C138.338 158.486 138.25 158.221 138.074 158.021C137.898 157.818 137.65 157.717 137.33 157.717C137.014 157.717 136.768 157.814 136.592 158.01C136.416 158.205 136.328 158.475 136.328 158.818C136.328 159.158 136.416 159.432 136.592 159.639C136.768 159.846 137.016 159.949 137.336 159.949C137.656 159.949 137.902 159.846 138.074 159.639C138.25 159.432 138.338 159.158 138.338 158.818ZM141.613 160.805L142.105 156.469H146.887V157.881H143.494L143.283 159.715C143.686 159.5 144.113 159.393 144.566 159.393C145.379 159.393 146.016 159.645 146.477 160.148C146.938 160.652 147.168 161.357 147.168 162.264C147.168 162.814 147.051 163.309 146.816 163.746C146.586 164.18 146.254 164.518 145.82 164.76C145.387 164.998 144.875 165.117 144.285 165.117C143.77 165.117 143.291 165.014 142.85 164.807C142.408 164.596 142.059 164.301 141.801 163.922C141.547 163.543 141.412 163.111 141.396 162.627H143.072C143.107 162.982 143.23 163.26 143.441 163.459C143.656 163.654 143.936 163.752 144.279 163.752C144.662 163.752 144.957 163.615 145.164 163.342C145.371 163.064 145.475 162.674 145.475 162.17C145.475 161.686 145.355 161.314 145.117 161.057C144.879 160.799 144.541 160.67 144.104 160.67C143.701 160.67 143.375 160.775 143.125 160.986L142.961 161.139L141.613 160.805Z" fill="black"/>
<path d="M82.6934 165H81V158.473L78.9785 159.1V157.723L82.5117 156.457H82.6934V165ZM89.4316 161.59C88.9902 162.023 88.4746 162.24 87.8848 162.24C87.1309 162.24 86.5273 161.982 86.0742 161.467C85.6211 160.947 85.3945 160.248 85.3945 159.369C85.3945 158.811 85.5156 158.299 85.7578 157.834C86.0039 157.365 86.3457 157.002 86.7832 156.744C87.2207 156.482 87.7129 156.352 88.2598 156.352C88.8223 156.352 89.3223 156.492 89.7598 156.773C90.1973 157.055 90.5371 157.459 90.7793 157.986C91.0215 158.514 91.1445 159.117 91.1484 159.797V160.424C91.1484 161.846 90.7949 162.963 90.0879 163.775C89.3809 164.588 88.3789 165.021 87.082 165.076L86.666 165.082V163.67L87.041 163.664C88.5137 163.598 89.3105 162.906 89.4316 161.59ZM88.3008 160.945C88.5742 160.945 88.8086 160.875 89.0039 160.734C89.2031 160.594 89.3535 160.424 89.4551 160.225V159.527C89.4551 158.953 89.3457 158.508 89.127 158.191C88.9082 157.875 88.6152 157.717 88.248 157.717C87.9082 157.717 87.6289 157.873 87.4102 158.186C87.1914 158.494 87.082 158.883 87.082 159.352C87.082 159.816 87.1875 160.199 87.3984 160.5C87.6133 160.797 87.9141 160.945 88.3008 160.945ZM98.1035 161.473C98.1035 162.652 97.8594 163.555 97.3711 164.18C96.8828 164.805 96.168 165.117 95.2266 165.117C94.2969 165.117 93.5859 164.811 93.0938 164.197C92.6016 163.584 92.3496 162.705 92.3379 161.561V159.99C92.3379 158.799 92.584 157.895 93.0762 157.277C93.5723 156.66 94.2852 156.352 95.2148 156.352C96.1445 156.352 96.8555 156.658 97.3477 157.271C97.8398 157.881 98.0918 158.758 98.1035 159.902V161.473ZM96.4102 159.75C96.4102 159.043 96.3125 158.529 96.1172 158.209C95.9258 157.885 95.625 157.723 95.2148 157.723C94.8164 157.723 94.5215 157.877 94.3301 158.186C94.1426 158.49 94.043 158.969 94.0312 159.621V161.695C94.0312 162.391 94.125 162.908 94.3125 163.248C94.5039 163.584 94.8086 163.752 95.2266 163.752C95.6406 163.752 95.9395 163.59 96.123 163.266C96.3066 162.941 96.4023 162.445 96.4102 161.777V159.75Z" fill="black"/>
<path d="M467.693 305H466V298.473L463.979 299.1V297.723L467.512 296.457H467.693V305ZM476.213 301.473C476.213 302.652 475.969 303.555 475.48 304.18C474.992 304.805 474.277 305.117 473.336 305.117C472.406 305.117 471.695 304.811 471.203 304.197C470.711 303.584 470.459 302.705 470.447 301.561V299.99C470.447 298.799 470.693 297.895 471.186 297.277C471.682 296.66 472.395 296.352 473.324 296.352C474.254 296.352 474.965 296.658 475.457 297.271C475.949 297.881 476.201 298.758 476.213 299.902V301.473ZM474.52 299.75C474.52 299.043 474.422 298.529 474.227 298.209C474.035 297.885 473.734 297.723 473.324 297.723C472.926 297.723 472.631 297.877 472.439 298.186C472.252 298.49 472.152 298.969 472.141 299.621V301.695C472.141 302.391 472.234 302.908 472.422 303.248C472.613 303.584 472.918 303.752 473.336 303.752C473.75 303.752 474.049 303.59 474.232 303.266C474.416 302.941 474.512 302.445 474.52 301.777V299.75ZM483.104 301.473C483.104 302.652 482.859 303.555 482.371 304.18C481.883 304.805 481.168 305.117 480.227 305.117C479.297 305.117 478.586 304.811 478.094 304.197C477.602 303.584 477.35 302.705 477.338 301.561V299.99C477.338 298.799 477.584 297.895 478.076 297.277C478.572 296.66 479.285 296.352 480.215 296.352C481.145 296.352 481.855 296.658 482.348 297.271C482.84 297.881 483.092 298.758 483.104 299.902V301.473ZM481.41 299.75C481.41 299.043 481.312 298.529 481.117 298.209C480.926 297.885 480.625 297.723 480.215 297.723C479.816 297.723 479.521 297.877 479.33 298.186C479.143 298.49 479.043 298.969 479.031 299.621V301.695C479.031 302.391 479.125 302.908 479.312 303.248C479.504 303.584 479.809 303.752 480.227 303.752C480.641 303.752 480.939 303.59 481.123 303.266C481.307 302.941 481.402 302.445 481.41 301.777V299.75Z" fill="black"/>
<path d="M418.693 305H417V298.473L414.979 299.1V297.723L418.512 296.457H418.693V305ZM427.213 301.473C427.213 302.652 426.969 303.555 426.48 304.18C425.992 304.805 425.277 305.117 424.336 305.117C423.406 305.117 422.695 304.811 422.203 304.197C421.711 303.584 421.459 302.705 421.447 301.561V299.99C421.447 298.799 421.693 297.895 422.186 297.277C422.682 296.66 423.395 296.352 424.324 296.352C425.254 296.352 425.965 296.658 426.457 297.271C426.949 297.881 427.201 298.758 427.213 299.902V301.473ZM425.52 299.75C425.52 299.043 425.422 298.529 425.227 298.209C425.035 297.885 424.734 297.723 424.324 297.723C423.926 297.723 423.631 297.877 423.439 298.186C423.252 298.49 423.152 298.969 423.141 299.621V301.695C423.141 302.391 423.234 302.908 423.422 303.248C423.613 303.584 423.918 303.752 424.336 303.752C424.75 303.752 425.049 303.59 425.232 303.266C425.416 302.941 425.512 302.445 425.52 301.777V299.75ZM428.613 300.805L429.105 296.469H433.887V297.881H430.494L430.283 299.715C430.686 299.5 431.113 299.393 431.566 299.393C432.379 299.393 433.016 299.645 433.477 300.148C433.938 300.652 434.168 301.357 434.168 302.264C434.168 302.814 434.051 303.309 433.816 303.746C433.586 304.18 433.254 304.518 432.82 304.76C432.387 304.998 431.875 305.117 431.285 305.117C430.77 305.117 430.291 305.014 429.85 304.807C429.408 304.596 429.059 304.301 428.801 303.922C428.547 303.543 428.412 303.111 428.396 302.627H430.072C430.107 302.982 430.23 303.26 430.441 303.459C430.656 303.654 430.936 303.752 431.279 303.752C431.662 303.752 431.957 303.615 432.164 303.342C432.371 303.064 432.475 302.674 432.475 302.17C432.475 301.686 432.355 301.314 432.117 301.057C431.879 300.799 431.541 300.67 431.104 300.67C430.701 300.67 430.375 300.775 430.125 300.986L429.961 301.139L428.613 300.805Z" fill="black"/>
<path d="M370.693 305H369V298.473L366.979 299.1V297.723L370.512 296.457H370.693V305ZM377.584 305H375.891V298.473L373.869 299.1V297.723L377.402 296.457H377.584V305ZM386.104 301.473C386.104 302.652 385.859 303.555 385.371 304.18C384.883 304.805 384.168 305.117 383.227 305.117C382.297 305.117 381.586 304.811 381.094 304.197C380.602 303.584 380.35 302.705 380.338 301.561V299.99C380.338 298.799 380.584 297.895 381.076 297.277C381.572 296.66 382.285 296.352 383.215 296.352C384.145 296.352 384.855 296.658 385.348 297.271C385.84 297.881 386.092 298.758 386.104 299.902V301.473ZM384.41 299.75C384.41 299.043 384.312 298.529 384.117 298.209C383.926 297.885 383.625 297.723 383.215 297.723C382.816 297.723 382.521 297.877 382.33 298.186C382.143 298.49 382.043 298.969 382.031 299.621V301.695C382.031 302.391 382.125 302.908 382.312 303.248C382.504 303.584 382.809 303.752 383.227 303.752C383.641 303.752 383.939 303.59 384.123 303.266C384.307 302.941 384.402 302.445 384.41 301.777V299.75Z" fill="black"/>
<path d="M323.693 305H322V298.473L319.979 299.1V297.723L323.512 296.457H323.693V305ZM330.584 305H328.891V298.473L326.869 299.1V297.723L330.402 296.457H330.584V305ZM333.613 300.805L334.105 296.469H338.887V297.881H335.494L335.283 299.715C335.686 299.5 336.113 299.393 336.566 299.393C337.379 299.393 338.016 299.645 338.477 300.148C338.938 300.652 339.168 301.357 339.168 302.264C339.168 302.814 339.051 303.309 338.816 303.746C338.586 304.18 338.254 304.518 337.82 304.76C337.387 304.998 336.875 305.117 336.285 305.117C335.77 305.117 335.291 305.014 334.85 304.807C334.408 304.596 334.059 304.301 333.801 303.922C333.547 303.543 333.412 303.111 333.396 302.627H335.072C335.107 302.982 335.23 303.26 335.441 303.459C335.656 303.654 335.936 303.752 336.279 303.752C336.662 303.752 336.957 303.615 337.164 303.342C337.371 303.064 337.475 302.674 337.475 302.17C337.475 301.686 337.355 301.314 337.117 301.057C336.879 300.799 336.541 300.67 336.104 300.67C335.701 300.67 335.375 300.775 335.125 300.986L334.961 301.139L333.613 300.805Z" fill="black"/>
<path d="M275.693 305H274V298.473L271.979 299.1V297.723L275.512 296.457H275.693V305ZM284.318 305H278.471V303.84L281.23 300.898C281.609 300.484 281.889 300.123 282.068 299.814C282.252 299.506 282.344 299.213 282.344 298.936C282.344 298.557 282.248 298.26 282.057 298.045C281.865 297.826 281.592 297.717 281.236 297.717C280.854 297.717 280.551 297.85 280.328 298.115C280.109 298.377 280 298.723 280 299.152H278.301C278.301 298.633 278.424 298.158 278.67 297.729C278.92 297.299 279.271 296.963 279.725 296.721C280.178 296.475 280.691 296.352 281.266 296.352C282.145 296.352 282.826 296.562 283.311 296.984C283.799 297.406 284.043 298.002 284.043 298.771C284.043 299.193 283.934 299.623 283.715 300.061C283.496 300.498 283.121 301.008 282.59 301.59L280.65 303.635H284.318V305ZM291.104 301.473C291.104 302.652 290.859 303.555 290.371 304.18C289.883 304.805 289.168 305.117 288.227 305.117C287.297 305.117 286.586 304.811 286.094 304.197C285.602 303.584 285.35 302.705 285.338 301.561V299.99C285.338 298.799 285.584 297.895 286.076 297.277C286.572 296.66 287.285 296.352 288.215 296.352C289.145 296.352 289.855 296.658 290.348 297.271C290.84 297.881 291.092 298.758 291.104 299.902V301.473ZM289.41 299.75C289.41 299.043 289.312 298.529 289.117 298.209C288.926 297.885 288.625 297.723 288.215 297.723C287.816 297.723 287.521 297.877 287.33 298.186C287.143 298.49 287.043 298.969 287.031 299.621V301.695C287.031 302.391 287.125 302.908 287.312 303.248C287.504 303.584 287.809 303.752 288.227 303.752C288.641 303.752 288.939 303.59 289.123 303.266C289.307 302.941 289.402 302.445 289.41 301.777V299.75Z" fill="black"/>
<path d="M227.693 305H226V298.473L223.979 299.1V297.723L227.512 296.457H227.693V305ZM236.318 305H230.471V303.84L233.23 300.898C233.609 300.484 233.889 300.123 234.068 299.814C234.252 299.506 234.344 299.213 234.344 298.936C234.344 298.557 234.248 298.26 234.057 298.045C233.865 297.826 233.592 297.717 233.236 297.717C232.854 297.717 232.551 297.85 232.328 298.115C232.109 298.377 232 298.723 232 299.152H230.301C230.301 298.633 230.424 298.158 230.67 297.729C230.92 297.299 231.271 296.963 231.725 296.721C232.178 296.475 232.691 296.352 233.266 296.352C234.145 296.352 234.826 296.562 235.311 296.984C235.799 297.406 236.043 298.002 236.043 298.771C236.043 299.193 235.934 299.623 235.715 300.061C235.496 300.498 235.121 301.008 234.59 301.59L232.65 303.635H236.318V305ZM237.613 300.805L238.105 296.469H242.887V297.881H239.494L239.283 299.715C239.686 299.5 240.113 299.393 240.566 299.393C241.379 299.393 242.016 299.645 242.477 300.148C242.938 300.652 243.168 301.357 243.168 302.264C243.168 302.814 243.051 303.309 242.816 303.746C242.586 304.18 242.254 304.518 241.82 304.76C241.387 304.998 240.875 305.117 240.285 305.117C239.77 305.117 239.291 305.014 238.85 304.807C238.408 304.596 238.059 304.301 237.801 303.922C237.547 303.543 237.412 303.111 237.396 302.627H239.072C239.107 302.982 239.23 303.26 239.441 303.459C239.656 303.654 239.936 303.752 240.279 303.752C240.662 303.752 240.957 303.615 241.164 303.342C241.371 303.064 241.475 302.674 241.475 302.17C241.475 301.686 241.355 301.314 241.117 301.057C240.879 300.799 240.541 300.67 240.104 300.67C239.701 300.67 239.375 300.775 239.125 300.986L238.961 301.139L237.613 300.805Z" fill="black"/>
<path d="M179.693 305H178V298.473L175.979 299.1V297.723L179.512 296.457H179.693V305ZM184.193 299.984H185.096C185.525 299.984 185.844 299.877 186.051 299.662C186.258 299.447 186.361 299.162 186.361 298.807C186.361 298.463 186.258 298.195 186.051 298.004C185.848 297.812 185.566 297.717 185.207 297.717C184.883 297.717 184.611 297.807 184.393 297.986C184.174 298.162 184.064 298.393 184.064 298.678H182.371C182.371 298.232 182.49 297.834 182.729 297.482C182.971 297.127 183.307 296.85 183.736 296.65C184.17 296.451 184.646 296.352 185.166 296.352C186.068 296.352 186.775 296.568 187.287 297.002C187.799 297.432 188.055 298.025 188.055 298.783C188.055 299.174 187.936 299.533 187.697 299.861C187.459 300.189 187.146 300.441 186.76 300.617C187.24 300.789 187.598 301.047 187.832 301.391C188.07 301.734 188.189 302.141 188.189 302.609C188.189 303.367 187.912 303.975 187.357 304.432C186.807 304.889 186.076 305.117 185.166 305.117C184.314 305.117 183.617 304.893 183.074 304.443C182.535 303.994 182.266 303.4 182.266 302.662H183.959C183.959 302.982 184.078 303.244 184.316 303.447C184.559 303.65 184.855 303.752 185.207 303.752C185.609 303.752 185.924 303.646 186.15 303.436C186.381 303.221 186.496 302.938 186.496 302.586C186.496 301.734 186.027 301.309 185.09 301.309H184.193V299.984ZM195.104 301.473C195.104 302.652 194.859 303.555 194.371 304.18C193.883 304.805 193.168 305.117 192.227 305.117C191.297 305.117 190.586 304.811 190.094 304.197C189.602 303.584 189.35 302.705 189.338 301.561V299.99C189.338 298.799 189.584 297.895 190.076 297.277C190.572 296.66 191.285 296.352 192.215 296.352C193.145 296.352 193.855 296.658 194.348 297.271C194.84 297.881 195.092 298.758 195.104 299.902V301.473ZM193.41 299.75C193.41 299.043 193.312 298.529 193.117 298.209C192.926 297.885 192.625 297.723 192.215 297.723C191.816 297.723 191.521 297.877 191.33 298.186C191.143 298.49 191.043 298.969 191.031 299.621V301.695C191.031 302.391 191.125 302.908 191.312 303.248C191.504 303.584 191.809 303.752 192.227 303.752C192.641 303.752 192.939 303.59 193.123 303.266C193.307 302.941 193.402 302.445 193.41 301.777V299.75Z" fill="black"/>
<path d="M131.693 305H130V298.473L127.979 299.1V297.723L131.512 296.457H131.693V305ZM136.193 299.984H137.096C137.525 299.984 137.844 299.877 138.051 299.662C138.258 299.447 138.361 299.162 138.361 298.807C138.361 298.463 138.258 298.195 138.051 298.004C137.848 297.812 137.566 297.717 137.207 297.717C136.883 297.717 136.611 297.807 136.393 297.986C136.174 298.162 136.064 298.393 136.064 298.678H134.371C134.371 298.232 134.49 297.834 134.729 297.482C134.971 297.127 135.307 296.85 135.736 296.65C136.17 296.451 136.646 296.352 137.166 296.352C138.068 296.352 138.775 296.568 139.287 297.002C139.799 297.432 140.055 298.025 140.055 298.783C140.055 299.174 139.936 299.533 139.697 299.861C139.459 300.189 139.146 300.441 138.76 300.617C139.24 300.789 139.598 301.047 139.832 301.391C140.07 301.734 140.189 302.141 140.189 302.609C140.189 303.367 139.912 303.975 139.357 304.432C138.807 304.889 138.076 305.117 137.166 305.117C136.314 305.117 135.617 304.893 135.074 304.443C134.535 303.994 134.266 303.4 134.266 302.662H135.959C135.959 302.982 136.078 303.244 136.316 303.447C136.559 303.65 136.855 303.752 137.207 303.752C137.609 303.752 137.924 303.646 138.15 303.436C138.381 303.221 138.496 302.938 138.496 302.586C138.496 301.734 138.027 301.309 137.09 301.309H136.193V299.984ZM141.613 300.805L142.105 296.469H146.887V297.881H143.494L143.283 299.715C143.686 299.5 144.113 299.393 144.566 299.393C145.379 299.393 146.016 299.645 146.477 300.148C146.938 300.652 147.168 301.357 147.168 302.264C147.168 302.814 147.051 303.309 146.816 303.746C146.586 304.18 146.254 304.518 145.82 304.76C145.387 304.998 144.875 305.117 144.285 305.117C143.77 305.117 143.291 305.014 142.85 304.807C142.408 304.596 142.059 304.301 141.801 303.922C141.547 303.543 141.412 303.111 141.396 302.627H143.072C143.107 302.982 143.23 303.26 143.441 303.459C143.656 303.654 143.936 303.752 144.279 303.752C144.662 303.752 144.957 303.615 145.164 303.342C145.371 303.064 145.475 302.674 145.475 302.17C145.475 301.686 145.355 301.314 145.117 301.057C144.879 300.799 144.541 300.67 144.104 300.67C143.701 300.67 143.375 300.775 143.125 300.986L142.961 301.139L141.613 300.805Z" fill="black"/>
<path d="M83.6934 305H82V298.473L79.9785 299.1V297.723L83.5117 296.457H83.6934V305ZM91.4805 301.789H92.4473V303.154H91.4805V305H89.7871V303.154H86.2891L86.2129 302.088L89.7695 296.469H91.4805V301.789ZM87.9004 301.789H89.7871V298.777L89.6758 298.971L87.9004 301.789ZM99.1035 301.473C99.1035 302.652 98.8594 303.555 98.3711 304.18C97.8828 304.805 97.168 305.117 96.2266 305.117C95.2969 305.117 94.5859 304.811 94.0938 304.197C93.6016 303.584 93.3496 302.705 93.3379 301.561V299.99C93.3379 298.799 93.584 297.895 94.0762 297.277C94.5723 296.66 95.2852 296.352 96.2148 296.352C97.1445 296.352 97.8555 296.658 98.3477 297.271C98.8398 297.881 99.0918 298.758 99.1035 299.902V301.473ZM97.4102 299.75C97.4102 299.043 97.3125 298.529 97.1172 298.209C96.9258 297.885 96.625 297.723 96.2148 297.723C95.8164 297.723 95.5215 297.877 95.3301 298.186C95.1426 298.49 95.043 298.969 95.0312 299.621V301.695C95.0312 302.391 95.125 302.908 95.3125 303.248C95.5039 303.584 95.8086 303.752 96.2266 303.752C96.6406 303.752 96.9395 303.59 97.123 303.266C97.3066 302.941 97.4023 302.445 97.4102 301.777V299.75Z" fill="black"/>
<path d="M35.6934 305H34V298.473L31.9785 299.1V297.723L35.5117 296.457H35.6934V305ZM43.4805 301.789H44.4473V303.154H43.4805V305H41.7871V303.154H38.2891L38.2129 302.088L41.7695 296.469H43.4805V301.789ZM39.9004 301.789H41.7871V298.777L41.6758 298.971L39.9004 301.789ZM45.6133 300.805L46.1055 296.469H50.8867V297.881H47.4941L47.2832 299.715C47.6855 299.5 48.1133 299.393 48.5664 299.393C49.3789 299.393 50.0156 299.645 50.4766 300.148C50.9375 300.652 51.168 301.357 51.168 302.264C51.168 302.814 51.0508 303.309 50.8164 303.746C50.5859 304.18 50.2539 304.518 49.8203 304.76C49.3867 304.998 48.875 305.117 48.2852 305.117C47.7695 305.117 47.291 305.014 46.8496 304.807C46.4082 304.596 46.0586 304.301 45.8008 303.922C45.5469 303.543 45.4121 303.111 45.3965 302.627H47.0723C47.1074 302.982 47.2305 303.26 47.4414 303.459C47.6562 303.654 47.9355 303.752 48.2793 303.752C48.6621 303.752 48.957 303.615 49.1641 303.342C49.3711 303.064 49.4746 302.674 49.4746 302.17C49.4746 301.686 49.3555 301.314 49.1172 301.057C48.8789 300.799 48.541 300.67 48.1035 300.67C47.7012 300.67 47.375 300.775 47.125 300.986L46.9609 301.139L45.6133 300.805Z" fill="black"/>
<path d="M467.832 428.805L468.324 424.469H473.105V425.881H469.713L469.502 427.715C469.904 427.5 470.332 427.393 470.785 427.393C471.598 427.393 472.234 427.645 472.695 428.148C473.156 428.652 473.387 429.357 473.387 430.264C473.387 430.814 473.27 431.309 473.035 431.746C472.805 432.18 472.473 432.518 472.039 432.76C471.605 432.998 471.094 433.117 470.504 433.117C469.988 433.117 469.51 433.014 469.068 432.807C468.627 432.596 468.277 432.301 468.02 431.922C467.766 431.543 467.631 431.111 467.615 430.627H469.291C469.326 430.982 469.449 431.26 469.66 431.459C469.875 431.654 470.154 431.752 470.498 431.752C470.881 431.752 471.176 431.615 471.383 431.342C471.59 431.064 471.693 430.674 471.693 430.17C471.693 429.686 471.574 429.314 471.336 429.057C471.098 428.799 470.76 428.67 470.322 428.67C469.92 428.67 469.594 428.775 469.344 428.986L469.18 429.139L467.832 428.805ZM480.213 429.473C480.213 430.652 479.969 431.555 479.48 432.18C478.992 432.805 478.277 433.117 477.336 433.117C476.406 433.117 475.695 432.811 475.203 432.197C474.711 431.584 474.459 430.705 474.447 429.561V427.99C474.447 426.799 474.693 425.895 475.186 425.277C475.682 424.66 476.395 424.352 477.324 424.352C478.254 424.352 478.965 424.658 479.457 425.271C479.949 425.881 480.201 426.758 480.213 427.902V429.473ZM478.52 427.75C478.52 427.043 478.422 426.529 478.227 426.209C478.035 425.885 477.734 425.723 477.324 425.723C476.926 425.723 476.631 425.877 476.439 426.186C476.252 426.49 476.152 426.969 476.141 427.621V429.695C476.141 430.391 476.234 430.908 476.422 431.248C476.613 431.584 476.918 431.752 477.336 431.752C477.75 431.752 478.049 431.59 478.232 431.266C478.416 430.941 478.512 430.445 478.52 429.777V427.75Z" fill="black"/>
<path d="M418.832 428.805L419.324 424.469H424.105V425.881H420.713L420.502 427.715C420.904 427.5 421.332 427.393 421.785 427.393C422.598 427.393 423.234 427.645 423.695 428.148C424.156 428.652 424.387 429.357 424.387 430.264C424.387 430.814 424.27 431.309 424.035 431.746C423.805 432.18 423.473 432.518 423.039 432.76C422.605 432.998 422.094 433.117 421.504 433.117C420.988 433.117 420.51 433.014 420.068 432.807C419.627 432.596 419.277 432.301 419.02 431.922C418.766 431.543 418.631 431.111 418.615 430.627H420.291C420.326 430.982 420.449 431.26 420.66 431.459C420.875 431.654 421.154 431.752 421.498 431.752C421.881 431.752 422.176 431.615 422.383 431.342C422.59 431.064 422.693 430.674 422.693 430.17C422.693 429.686 422.574 429.314 422.336 429.057C422.098 428.799 421.76 428.67 421.322 428.67C420.92 428.67 420.594 428.775 420.344 428.986L420.18 429.139L418.832 428.805ZM425.723 428.805L426.215 424.469H430.996V425.881H427.604L427.393 427.715C427.795 427.5 428.223 427.393 428.676 427.393C429.488 427.393 430.125 427.645 430.586 428.148C431.047 428.652 431.277 429.357 431.277 430.264C431.277 430.814 431.16 431.309 430.926 431.746C430.695 432.18 430.363 432.518 429.93 432.76C429.496 432.998 428.984 433.117 428.395 433.117C427.879 433.117 427.4 433.014 426.959 432.807C426.518 432.596 426.168 432.301 425.91 431.922C425.656 431.543 425.521 431.111 425.506 430.627H427.182C427.217 430.982 427.34 431.26 427.551 431.459C427.766 431.654 428.045 431.752 428.389 431.752C428.771 431.752 429.066 431.615 429.273 431.342C429.48 431.064 429.584 430.674 429.584 430.17C429.584 429.686 429.465 429.314 429.227 429.057C428.988 428.799 428.65 428.67 428.213 428.67C427.811 428.67 427.484 428.775 427.234 428.986L427.07 429.139L425.723 428.805Z" fill="black"/>
<path d="M375.174 424.381V425.775H375.01C374.244 425.787 373.627 425.986 373.158 426.373C372.693 426.76 372.414 427.297 372.32 427.984C372.773 427.523 373.346 427.293 374.037 427.293C374.779 427.293 375.369 427.559 375.807 428.09C376.244 428.621 376.463 429.32 376.463 430.188C376.463 430.742 376.342 431.244 376.1 431.693C375.861 432.143 375.521 432.492 375.08 432.742C374.643 432.992 374.146 433.117 373.592 433.117C372.693 433.117 371.967 432.805 371.412 432.18C370.861 431.555 370.586 430.721 370.586 429.678V429.068C370.586 428.143 370.76 427.326 371.107 426.619C371.459 425.908 371.961 425.359 372.613 424.973C373.27 424.582 374.029 424.385 374.893 424.381H375.174ZM373.521 428.652C373.248 428.652 373 428.725 372.777 428.869C372.555 429.01 372.391 429.197 372.285 429.432V429.947C372.285 430.514 372.396 430.957 372.619 431.277C372.842 431.594 373.154 431.752 373.557 431.752C373.92 431.752 374.213 431.609 374.436 431.324C374.662 431.035 374.775 430.662 374.775 430.205C374.775 429.74 374.662 429.365 374.436 429.08C374.209 428.795 373.904 428.652 373.521 428.652ZM383.213 429.473C383.213 430.652 382.969 431.555 382.48 432.18C381.992 432.805 381.277 433.117 380.336 433.117C379.406 433.117 378.695 432.811 378.203 432.197C377.711 431.584 377.459 430.705 377.447 429.561V427.99C377.447 426.799 377.693 425.895 378.186 425.277C378.682 424.66 379.395 424.352 380.324 424.352C381.254 424.352 381.965 424.658 382.457 425.271C382.949 425.881 383.201 426.758 383.213 427.902V429.473ZM381.52 427.75C381.52 427.043 381.422 426.529 381.227 426.209C381.035 425.885 380.734 425.723 380.324 425.723C379.926 425.723 379.631 425.877 379.439 426.186C379.252 426.49 379.152 426.969 379.141 427.621V429.695C379.141 430.391 379.234 430.908 379.422 431.248C379.613 431.584 379.918 431.752 380.336 431.752C380.75 431.752 381.049 431.59 381.232 431.266C381.416 430.941 381.512 430.445 381.52 429.777V427.75Z" fill="black"/>
<path d="M327.174 424.381V425.775H327.01C326.244 425.787 325.627 425.986 325.158 426.373C324.693 426.76 324.414 427.297 324.32 427.984C324.773 427.523 325.346 427.293 326.037 427.293C326.779 427.293 327.369 427.559 327.807 428.09C328.244 428.621 328.463 429.32 328.463 430.188C328.463 430.742 328.342 431.244 328.1 431.693C327.861 432.143 327.521 432.492 327.08 432.742C326.643 432.992 326.146 433.117 325.592 433.117C324.693 433.117 323.967 432.805 323.412 432.18C322.861 431.555 322.586 430.721 322.586 429.678V429.068C322.586 428.143 322.76 427.326 323.107 426.619C323.459 425.908 323.961 425.359 324.613 424.973C325.27 424.582 326.029 424.385 326.893 424.381H327.174ZM325.521 428.652C325.248 428.652 325 428.725 324.777 428.869C324.555 429.01 324.391 429.197 324.285 429.432V429.947C324.285 430.514 324.396 430.957 324.619 431.277C324.842 431.594 325.154 431.752 325.557 431.752C325.92 431.752 326.213 431.609 326.436 431.324C326.662 431.035 326.775 430.662 326.775 430.205C326.775 429.74 326.662 429.365 326.436 429.08C326.209 428.795 325.904 428.652 325.521 428.652ZM329.723 428.805L330.215 424.469H334.996V425.881H331.604L331.393 427.715C331.795 427.5 332.223 427.393 332.676 427.393C333.488 427.393 334.125 427.645 334.586 428.148C335.047 428.652 335.277 429.357 335.277 430.264C335.277 430.814 335.16 431.309 334.926 431.746C334.695 432.18 334.363 432.518 333.93 432.76C333.496 432.998 332.984 433.117 332.395 433.117C331.879 433.117 331.4 433.014 330.959 432.807C330.518 432.596 330.168 432.301 329.91 431.922C329.656 431.543 329.521 431.111 329.506 430.627H331.182C331.217 430.982 331.34 431.26 331.551 431.459C331.766 431.654 332.045 431.752 332.389 431.752C332.771 431.752 333.066 431.615 333.273 431.342C333.48 431.064 333.584 430.674 333.584 430.17C333.584 429.686 333.465 429.314 333.227 429.057C332.988 428.799 332.65 428.67 332.213 428.67C331.811 428.67 331.484 428.775 331.234 428.986L331.07 429.139L329.723 428.805Z" fill="black"/>
<path d="M280.381 425.418L277.082 433H275.295L278.6 425.84H274.357V424.469H280.381V425.418ZM287.213 429.473C287.213 430.652 286.969 431.555 286.48 432.18C285.992 432.805 285.277 433.117 284.336 433.117C283.406 433.117 282.695 432.811 282.203 432.197C281.711 431.584 281.459 430.705 281.447 429.561V427.99C281.447 426.799 281.693 425.895 282.186 425.277C282.682 424.66 283.395 424.352 284.324 424.352C285.254 424.352 285.965 424.658 286.457 425.271C286.949 425.881 287.201 426.758 287.213 427.902V429.473ZM285.52 427.75C285.52 427.043 285.422 426.529 285.227 426.209C285.035 425.885 284.734 425.723 284.324 425.723C283.926 425.723 283.631 425.877 283.439 426.186C283.252 426.49 283.152 426.969 283.141 427.621V429.695C283.141 430.391 283.234 430.908 283.422 431.248C283.613 431.584 283.918 431.752 284.336 431.752C284.75 431.752 285.049 431.59 285.232 431.266C285.416 430.941 285.512 430.445 285.52 429.777V427.75Z" fill="black"/>
<path d="M232.381 425.418L229.082 433H227.295L230.6 425.84H226.357V424.469H232.381V425.418ZM233.723 428.805L234.215 424.469H238.996V425.881H235.604L235.393 427.715C235.795 427.5 236.223 427.393 236.676 427.393C237.488 427.393 238.125 427.645 238.586 428.148C239.047 428.652 239.277 429.357 239.277 430.264C239.277 430.814 239.16 431.309 238.926 431.746C238.695 432.18 238.363 432.518 237.93 432.76C237.496 432.998 236.984 433.117 236.395 433.117C235.879 433.117 235.4 433.014 234.959 432.807C234.518 432.596 234.168 432.301 233.91 431.922C233.656 431.543 233.521 431.111 233.506 430.627H235.182C235.217 430.982 235.34 431.26 235.551 431.459C235.766 431.654 236.045 431.752 236.389 431.752C236.771 431.752 237.066 431.615 237.273 431.342C237.48 431.064 237.584 430.674 237.584 430.17C237.584 429.686 237.465 429.314 237.227 429.057C236.988 428.799 236.65 428.67 236.213 428.67C235.811 428.67 235.484 428.775 235.234 428.986L235.07 429.139L233.723 428.805Z" fill="black"/>
<path d="M184.141 426.736C184.141 427.15 184.037 427.518 183.83 427.838C183.623 428.158 183.338 428.414 182.975 428.605C183.389 428.805 183.717 429.08 183.959 429.432C184.201 429.779 184.322 430.189 184.322 430.662C184.322 431.42 184.064 432.02 183.549 432.461C183.033 432.898 182.332 433.117 181.445 433.117C180.559 433.117 179.855 432.896 179.336 432.455C178.816 432.014 178.557 431.416 178.557 430.662C178.557 430.189 178.678 429.777 178.92 429.426C179.162 429.074 179.488 428.801 179.898 428.605C179.535 428.414 179.25 428.158 179.043 427.838C178.84 427.518 178.738 427.15 178.738 426.736C178.738 426.01 178.98 425.432 179.465 425.002C179.949 424.568 180.607 424.352 181.439 424.352C182.268 424.352 182.924 424.566 183.408 424.996C183.896 425.422 184.141 426.002 184.141 426.736ZM182.623 430.539C182.623 430.168 182.516 429.871 182.301 429.648C182.086 429.426 181.797 429.314 181.434 429.314C181.074 429.314 180.787 429.426 180.572 429.648C180.357 429.867 180.25 430.164 180.25 430.539C180.25 430.902 180.355 431.195 180.566 431.418C180.777 431.641 181.07 431.752 181.445 431.752C181.812 431.752 182.1 431.645 182.307 431.43C182.518 431.215 182.623 430.918 182.623 430.539ZM182.447 426.818C182.447 426.486 182.359 426.221 182.184 426.021C182.008 425.818 181.76 425.717 181.439 425.717C181.123 425.717 180.877 425.814 180.701 426.01C180.525 426.205 180.438 426.475 180.438 426.818C180.438 427.158 180.525 427.432 180.701 427.639C180.877 427.846 181.125 427.949 181.445 427.949C181.766 427.949 182.012 427.846 182.184 427.639C182.359 427.432 182.447 427.158 182.447 426.818ZM191.213 429.473C191.213 430.652 190.969 431.555 190.48 432.18C189.992 432.805 189.277 433.117 188.336 433.117C187.406 433.117 186.695 432.811 186.203 432.197C185.711 431.584 185.459 430.705 185.447 429.561V427.99C185.447 426.799 185.693 425.895 186.186 425.277C186.682 424.66 187.395 424.352 188.324 424.352C189.254 424.352 189.965 424.658 190.457 425.271C190.949 425.881 191.201 426.758 191.213 427.902V429.473ZM189.52 427.75C189.52 427.043 189.422 426.529 189.227 426.209C189.035 425.885 188.734 425.723 188.324 425.723C187.926 425.723 187.631 425.877 187.439 426.186C187.252 426.49 187.152 426.969 187.141 427.621V429.695C187.141 430.391 187.234 430.908 187.422 431.248C187.613 431.584 187.918 431.752 188.336 431.752C188.75 431.752 189.049 431.59 189.232 431.266C189.416 430.941 189.512 430.445 189.52 429.777V427.75Z" fill="black"/>
<path d="M136.141 426.736C136.141 427.15 136.037 427.518 135.83 427.838C135.623 428.158 135.338 428.414 134.975 428.605C135.389 428.805 135.717 429.08 135.959 429.432C136.201 429.779 136.322 430.189 136.322 430.662C136.322 431.42 136.064 432.02 135.549 432.461C135.033 432.898 134.332 433.117 133.445 433.117C132.559 433.117 131.855 432.896 131.336 432.455C130.816 432.014 130.557 431.416 130.557 430.662C130.557 430.189 130.678 429.777 130.92 429.426C131.162 429.074 131.488 428.801 131.898 428.605C131.535 428.414 131.25 428.158 131.043 427.838C130.84 427.518 130.738 427.15 130.738 426.736C130.738 426.01 130.98 425.432 131.465 425.002C131.949 424.568 132.607 424.352 133.439 424.352C134.268 424.352 134.924 424.566 135.408 424.996C135.896 425.422 136.141 426.002 136.141 426.736ZM134.623 430.539C134.623 430.168 134.516 429.871 134.301 429.648C134.086 429.426 133.797 429.314 133.434 429.314C133.074 429.314 132.787 429.426 132.572 429.648C132.357 429.867 132.25 430.164 132.25 430.539C132.25 430.902 132.355 431.195 132.566 431.418C132.777 431.641 133.07 431.752 133.445 431.752C133.812 431.752 134.1 431.645 134.307 431.43C134.518 431.215 134.623 430.918 134.623 430.539ZM134.447 426.818C134.447 426.486 134.359 426.221 134.184 426.021C134.008 425.818 133.76 425.717 133.439 425.717C133.123 425.717 132.877 425.814 132.701 426.01C132.525 426.205 132.438 426.475 132.438 426.818C132.438 427.158 132.525 427.432 132.701 427.639C132.877 427.846 133.125 427.949 133.445 427.949C133.766 427.949 134.012 427.846 134.184 427.639C134.359 427.432 134.447 427.158 134.447 426.818ZM137.723 428.805L138.215 424.469H142.996V425.881H139.604L139.393 427.715C139.795 427.5 140.223 427.393 140.676 427.393C141.488 427.393 142.125 427.645 142.586 428.148C143.047 428.652 143.277 429.357 143.277 430.264C143.277 430.814 143.16 431.309 142.926 431.746C142.695 432.18 142.363 432.518 141.93 432.76C141.496 432.998 140.984 433.117 140.395 433.117C139.879 433.117 139.4 433.014 138.959 432.807C138.518 432.596 138.168 432.301 137.91 431.922C137.656 431.543 137.521 431.111 137.506 430.627H139.182C139.217 430.982 139.34 431.26 139.551 431.459C139.766 431.654 140.045 431.752 140.389 431.752C140.771 431.752 141.066 431.615 141.273 431.342C141.48 431.064 141.584 430.674 141.584 430.17C141.584 429.686 141.465 429.314 141.227 429.057C140.988 428.799 140.65 428.67 140.213 428.67C139.811 428.67 139.484 428.775 139.234 428.986L139.07 429.139L137.723 428.805Z" fill="black"/>
<path d="M86.541 429.59C86.0996 430.023 85.584 430.24 84.9941 430.24C84.2402 430.24 83.6367 429.982 83.1836 429.467C82.7305 428.947 82.5039 428.248 82.5039 427.369C82.5039 426.811 82.625 426.299 82.8672 425.834C83.1133 425.365 83.4551 425.002 83.8926 424.744C84.3301 424.482 84.8223 424.352 85.3691 424.352C85.9316 424.352 86.4316 424.492 86.8691 424.773C87.3066 425.055 87.6465 425.459 87.8887 425.986C88.1309 426.514 88.2539 427.117 88.2578 427.797V428.424C88.2578 429.846 87.9043 430.963 87.1973 431.775C86.4902 432.588 85.4883 433.021 84.1914 433.076L83.7754 433.082V431.67L84.1504 431.664C85.623 431.598 86.4199 430.906 86.541 429.59ZM85.4102 428.945C85.6836 428.945 85.918 428.875 86.1133 428.734C86.3125 428.594 86.4629 428.424 86.5645 428.225V427.527C86.5645 426.953 86.4551 426.508 86.2363 426.191C86.0176 425.875 85.7246 425.717 85.3574 425.717C85.0176 425.717 84.7383 425.873 84.5195 426.186C84.3008 426.494 84.1914 426.883 84.1914 427.352C84.1914 427.816 84.2969 428.199 84.5078 428.5C84.7227 428.797 85.0234 428.945 85.4102 428.945ZM95.2129 429.473C95.2129 430.652 94.9688 431.555 94.4805 432.18C93.9922 432.805 93.2773 433.117 92.3359 433.117C91.4062 433.117 90.6953 432.811 90.2031 432.197C89.7109 431.584 89.459 430.705 89.4473 429.561V427.99C89.4473 426.799 89.6934 425.895 90.1855 425.277C90.6816 424.66 91.3945 424.352 92.3242 424.352C93.2539 424.352 93.9648 424.658 94.457 425.271C94.9492 425.881 95.2012 426.758 95.2129 427.902V429.473ZM93.5195 427.75C93.5195 427.043 93.4219 426.529 93.2266 426.209C93.0352 425.885 92.7344 425.723 92.3242 425.723C91.9258 425.723 91.6309 425.877 91.4395 426.186C91.252 426.49 91.1523 426.969 91.1406 427.621V429.695C91.1406 430.391 91.2344 430.908 91.4219 431.248C91.6133 431.584 91.918 431.752 92.3359 431.752C92.75 431.752 93.0488 431.59 93.2324 431.266C93.416 430.941 93.5117 430.445 93.5195 429.777V427.75Z" fill="black"/>
<path d="M38.541 429.59C38.0996 430.023 37.584 430.24 36.9941 430.24C36.2402 430.24 35.6367 429.982 35.1836 429.467C34.7305 428.947 34.5039 428.248 34.5039 427.369C34.5039 426.811 34.625 426.299 34.8672 425.834C35.1133 425.365 35.4551 425.002 35.8926 424.744C36.3301 424.482 36.8223 424.352 37.3691 424.352C37.9316 424.352 38.4316 424.492 38.8691 424.773C39.3066 425.055 39.6465 425.459 39.8887 425.986C40.1309 426.514 40.2539 427.117 40.2578 427.797V428.424C40.2578 429.846 39.9043 430.963 39.1973 431.775C38.4902 432.588 37.4883 433.021 36.1914 433.076L35.7754 433.082V431.67L36.1504 431.664C37.623 431.598 38.4199 430.906 38.541 429.59ZM37.4102 428.945C37.6836 428.945 37.918 428.875 38.1133 428.734C38.3125 428.594 38.4629 428.424 38.5645 428.225V427.527C38.5645 426.953 38.4551 426.508 38.2363 426.191C38.0176 425.875 37.7246 425.717 37.3574 425.717C37.0176 425.717 36.7383 425.873 36.5195 426.186C36.3008 426.494 36.1914 426.883 36.1914 427.352C36.1914 427.816 36.2969 428.199 36.5078 428.5C36.7227 428.797 37.0234 428.945 37.4102 428.945ZM41.7227 428.805L42.2148 424.469H46.9961V425.881H43.6035L43.3926 427.715C43.7949 427.5 44.2227 427.393 44.6758 427.393C45.4883 427.393 46.125 427.645 46.5859 428.148C47.0469 428.652 47.2773 429.357 47.2773 430.264C47.2773 430.814 47.1602 431.309 46.9258 431.746C46.6953 432.18 46.3633 432.518 45.9297 432.76C45.4961 432.998 44.9844 433.117 44.3945 433.117C43.8789 433.117 43.4004 433.014 42.959 432.807C42.5176 432.596 42.168 432.301 41.9102 431.922C41.6562 431.543 41.5215 431.111 41.5059 430.627H43.1816C43.2168 430.982 43.3398 431.26 43.5508 431.459C43.7656 431.654 44.0449 431.752 44.3887 431.752C44.7715 431.752 45.0664 431.615 45.2734 431.342C45.4805 431.064 45.584 430.674 45.584 430.17C45.584 429.686 45.4648 429.314 45.2266 429.057C44.9883 428.799 44.6504 428.67 44.2129 428.67C43.8105 428.67 43.4844 428.775 43.2344 428.986L43.0703 429.139L41.7227 428.805Z" fill="black"/>
</svg>
